#include "pitches.h" //add Equivalent frequency for musical note

const PROGMEM int asabranca[] = {
  // Asa branca - Luiz Gonzaga
  // Score available at https://musescore.com/user/190926/scores/181370
  NOTE_G4,8, NOTE_A4,8, NOTE_B4,4, NOTE_D5,4, NOTE_D5,4, NOTE_B4,4, 
  NOTE_C5,4, NOTE_C5,2, NOTE_G4,8, NOTE_A4,8,
  NOTE_B4,4, NOTE_D5,4, NOTE_D5,4, NOTE_C5,4,

  NOTE_B4,2, REST,8, NOTE_G4,8, NOTE_G4,8, NOTE_A4,8,
  NOTE_B4,4, NOTE_D5,4, REST,8, NOTE_D5,8, NOTE_C5,8, NOTE_B4,8,
  NOTE_G4,4, NOTE_C5,4, REST,8, NOTE_C5,8, NOTE_B4,8, NOTE_A4,8,

  NOTE_A4,4, NOTE_B4,4, REST,8, NOTE_B4,8, NOTE_A4,8, NOTE_G4,8,
  NOTE_G4,2, REST,8, NOTE_G4,8, NOTE_G4,8, NOTE_A4,8,
  NOTE_B4,4, NOTE_D5,4, REST,8, NOTE_D5,8, NOTE_C5,8, NOTE_B4,8,

  NOTE_G4,4, NOTE_C5,4, REST,8, NOTE_C5,8, NOTE_B4,8, NOTE_A4,8,
  NOTE_A4,4, NOTE_B4,4, REST,8, NOTE_B4,8, NOTE_A4,8, NOTE_G4,8,
  NOTE_G4,4, NOTE_F5,8, NOTE_D5,8, NOTE_E5,8, NOTE_C5,8, NOTE_D5,8, NOTE_B4,8,

  NOTE_C5,8, NOTE_A4,8, NOTE_B4,8, NOTE_G4,8, NOTE_A4,8, NOTE_G4,8, NOTE_E4,8, NOTE_G4,8,
  NOTE_G4,4, NOTE_F5,8, NOTE_D5,8, NOTE_E5,8, NOTE_C5,8, NOTE_D5,8, NOTE_B4,8,
  NOTE_C5,8, NOTE_A4,8, NOTE_B4,8, NOTE_G4,8, NOTE_A4,8, NOTE_G4,8, NOTE_E4,8, NOTE_G4,8,
  NOTE_G4,-2, REST,4
};

const PROGMEM int babyelephant[] = {
  // Baby Elephant Walk
  // Score available at https://musescore.com/user/7965776/scores/1862611
  NOTE_C4,-8, NOTE_E4,16, NOTE_G4,8, NOTE_C5,8, NOTE_E5,8, NOTE_D5,8, NOTE_C5,8, NOTE_A4,8,
  NOTE_FS4,8, NOTE_G4,8, REST,4, REST,2,
  NOTE_C4,-8, NOTE_E4,16, NOTE_G4,8, NOTE_C5,8, NOTE_E5,8, NOTE_D5,8, NOTE_C5,8, NOTE_A4,8,
  NOTE_G4,-2, NOTE_A4,8, NOTE_DS4,1,
  
  NOTE_A4,8,
  NOTE_E4,8, NOTE_C4,8, REST,4, REST,2,
  NOTE_C4,-8, NOTE_E4,16, NOTE_G4,8, NOTE_C5,8, NOTE_E5,8, NOTE_D5,8, NOTE_C5,8, NOTE_A4,8,
  NOTE_FS4,8, NOTE_G4,8, REST,4, REST,4, REST,8, NOTE_G4,8,
  NOTE_D5,4, NOTE_D5,4, NOTE_B4,8, NOTE_G4,8, REST,8, NOTE_G4,8,
   
  NOTE_C5,4, NOTE_C5,4, NOTE_AS4,16, NOTE_C5,16, NOTE_AS4,16, NOTE_G4,16, NOTE_F4,8, NOTE_DS4,8,
  NOTE_FS4,4, NOTE_FS4,4, NOTE_F4,16, NOTE_G4,16, NOTE_F4,16, NOTE_DS4,16, NOTE_C4,8, NOTE_G4,8,
  NOTE_AS4,8, NOTE_C5,8, REST,4, REST,2,
};

const PROGMEM int brahms[] = {
  // Wiegenlied (Brahms' Lullaby)
  // Score available at https://www.flutetunes.com/tunes.php?id=54
  NOTE_G4, 4, NOTE_G4, 4, //1
  NOTE_AS4, -4, NOTE_G4, 8, NOTE_G4, 4,
  NOTE_AS4, 4, REST, 4, NOTE_G4, 8, NOTE_AS4, 8,
  NOTE_DS5, 4, NOTE_D5, -4, NOTE_C5, 8,
  NOTE_C5, 4, NOTE_AS4, 4, NOTE_F4, 8, NOTE_G4, 8,
  NOTE_GS4, 4, NOTE_F4, 4, NOTE_F4, 8, NOTE_G4, 8,
  NOTE_GS4, 4, REST, 4, NOTE_F4, 8, NOTE_GS4, 8,
  NOTE_D5, 8, NOTE_C5, 8, NOTE_AS4, 4, NOTE_D5, 4,

  NOTE_DS5, 4, REST, 4, NOTE_DS4, 8, NOTE_DS4, 8, //8
  NOTE_DS5, 2, NOTE_C5, 8, NOTE_GS4, 8,
  NOTE_AS4, 2, NOTE_G4, 8, NOTE_DS4, 8,
  NOTE_GS4, 4, NOTE_AS4, 4, NOTE_C5, 4,
  NOTE_AS4, 2, NOTE_DS4, 8, NOTE_DS4, 8,
  NOTE_DS5, 2, NOTE_C5, 8, NOTE_GS4, 8,
  NOTE_AS4, 2, NOTE_G4, 8, NOTE_DS4, 8,
  NOTE_AS4, 4, NOTE_G4, 4, NOTE_DS4, 4,
  NOTE_DS4, 2
};

const PROGMEM int cannond[] = {
  // Cannon in D - Pachelbel
  // Score available at https://musescore.com/user/4710311/scores/1975521
  // C F
  NOTE_FS4,2, NOTE_E4,2,
  NOTE_D4,2, NOTE_CS4,2,
  NOTE_B3,2, NOTE_A3,2,
  NOTE_B3,2, NOTE_CS4,2,
  NOTE_FS4,2, NOTE_E4,2,
  NOTE_D4,2, NOTE_CS4,2,
  NOTE_B3,2, NOTE_A3,2,
  NOTE_B3,2, NOTE_CS4,2,
  NOTE_D4,2, NOTE_CS4,2,
  NOTE_B3,2, NOTE_A3,2,
  NOTE_G3,2, NOTE_FS3,2,
  NOTE_G3,2, NOTE_A3,2,

  NOTE_D4,4, NOTE_FS4,8, NOTE_G4,8, NOTE_A4,4, NOTE_FS4,8, NOTE_G4,8, 
  NOTE_A4,4, NOTE_B3,8, NOTE_CS4,8, NOTE_D4,8, NOTE_E4,8, NOTE_FS4,8, NOTE_G4,8, 
  NOTE_FS4,4, NOTE_D4,8, NOTE_E4,8, NOTE_FS4,4, NOTE_FS3,8, NOTE_G3,8,
  NOTE_A3,8, NOTE_G3,8, NOTE_FS3,8, NOTE_G3,8, NOTE_A3,2,
  NOTE_G3,4, NOTE_B3,8, NOTE_A3,8, NOTE_G3,4, NOTE_FS3,8, NOTE_E3,8, 
  NOTE_FS3,4, NOTE_D3,8, NOTE_E3,8, NOTE_FS3,8, NOTE_G3,8, NOTE_A3,8, NOTE_B3,8,

  NOTE_G3,4, NOTE_B3,8, NOTE_A3,8, NOTE_B3,4, NOTE_CS4,8, NOTE_D4,8,
  NOTE_A3,8, NOTE_B3,8, NOTE_CS4,8, NOTE_D4,8, NOTE_E4,8, NOTE_FS4,8, NOTE_G4,8, NOTE_A4,2,
  NOTE_A4,4, NOTE_FS4,8, NOTE_G4,8, NOTE_A4,4,
  NOTE_FS4,8, NOTE_G4,8, NOTE_A4,8, NOTE_A3,8, NOTE_B3,8, NOTE_CS4,8,
  NOTE_D4,8, NOTE_E4,8, NOTE_FS4,8, NOTE_G4,8, NOTE_FS4,4, NOTE_D4,8, NOTE_E4,8,
  NOTE_FS4,8, NOTE_CS4,8, NOTE_A3,8, NOTE_A3,8,

  NOTE_CS4,4, NOTE_B3,4, NOTE_D4,8, NOTE_CS4,8, NOTE_B3,4,
  NOTE_A3,8, NOTE_G3,8, NOTE_A3,4, NOTE_D3,8, NOTE_E3,8, NOTE_FS3,8, NOTE_G3,8,
  NOTE_A3,8, NOTE_B3,4, NOTE_G3,4, NOTE_B3,8, NOTE_A3,8, NOTE_B3,4,
  NOTE_CS4,8, NOTE_D4,8, NOTE_A3,8, NOTE_B3,8, NOTE_CS4,8, NOTE_D4,8, NOTE_E4,8,
  NOTE_FS4,8, NOTE_G4,8, NOTE_A4,2,  
};

const PROGMEM int cantina[] = {
  // Cantina Band - Star wars 
  // Score available at https://musescore.com/user/6795541/scores/1606876
  NOTE_B4,-4, NOTE_E5,-4, NOTE_B4,-4, NOTE_E5,-4, 
  NOTE_B4,8,  NOTE_E5,-4, NOTE_B4,8, REST,8,  NOTE_AS4,8, NOTE_B4,8, 
  NOTE_B4,8,  NOTE_AS4,8, NOTE_B4,8, NOTE_A4,8, REST,8, NOTE_GS4,8, NOTE_A4,8, NOTE_G4,8,
  NOTE_G4,4,  NOTE_E4,-2, 
  NOTE_B4,-4, NOTE_E5,-4, NOTE_B4,-4, NOTE_E5,-4, 
  NOTE_B4,8,  NOTE_E5,-4, NOTE_B4,8, REST,8,  NOTE_AS4,8, NOTE_B4,8,

  NOTE_A4,-4, NOTE_A4,-4, NOTE_GS4,8, NOTE_A4,-4,
  NOTE_D5,8,  NOTE_C5,-4, NOTE_B4,-4, NOTE_A4,-4,
  NOTE_B4,-4, NOTE_E5,-4, NOTE_B4,-4, NOTE_E5,-4, 
  NOTE_B4,8,  NOTE_E5,-4, NOTE_B4,8, REST,8,  NOTE_AS4,8, NOTE_B4,8,
  NOTE_D5,4, NOTE_D5,-4, NOTE_B4,8, NOTE_A4,-4,
  NOTE_G4,-4, NOTE_E4,-2,
  NOTE_E4, 2, NOTE_G4,2,
  NOTE_B4, 2, NOTE_D5,2,

  NOTE_F5, -4, NOTE_E5,-4, NOTE_AS4,8, NOTE_AS4,8, NOTE_B4,4, NOTE_G4,4
};

const PROGMEM int got[] = {
  // Game of Thrones
  // Score available at https://musescore.com/user/8407786/scores/2156716
  NOTE_G4,8, NOTE_C4,8, NOTE_DS4,16, NOTE_F4,16, NOTE_G4,8, NOTE_C4,8, NOTE_DS4,16, NOTE_F4,16, //1
  NOTE_G4,8, NOTE_C4,8, NOTE_DS4,16, NOTE_F4,16, NOTE_G4,8, NOTE_C4,8, NOTE_DS4,16, NOTE_F4,16,
  NOTE_G4,8, NOTE_C4,8, NOTE_E4,16, NOTE_F4,16, NOTE_G4,8, NOTE_C4,8, NOTE_E4,16, NOTE_F4,16,
  NOTE_G4,8, NOTE_C4,8, NOTE_E4,16, NOTE_F4,16, NOTE_G4,8, NOTE_C4,8, NOTE_E4,16, NOTE_F4,16,
  NOTE_G4,-4, NOTE_C4,-4,//5

  NOTE_DS4,16, NOTE_F4,16, NOTE_G4,4, NOTE_C4,4, NOTE_DS4,16, NOTE_F4,16, //6
  NOTE_D4,-1, //7 and 8
  NOTE_F4,-4, NOTE_AS3,-4,
  NOTE_DS4,16, NOTE_D4,16, NOTE_F4,4, NOTE_AS3,-4,
  NOTE_DS4,16, NOTE_D4,16, NOTE_C4,-1, //11 and 12

  //repeats from 5
  NOTE_G4,-4, NOTE_C4,-4,//5

  NOTE_DS4,16, NOTE_F4,16, NOTE_G4,4, NOTE_C4,4, NOTE_DS4,16, NOTE_F4,16, //6
  NOTE_D4,-1, //7 and 8
  NOTE_F4,-4, NOTE_AS3,-4,
  NOTE_DS4,16, NOTE_D4,16, NOTE_F4,4, NOTE_AS3,-4,
  NOTE_DS4,16, NOTE_D4,16, NOTE_C4,-1, //11 and 12
  NOTE_G4,-4, NOTE_C4,-4,
  NOTE_DS4,16, NOTE_F4,16, NOTE_G4,4,  NOTE_C4,4, NOTE_DS4,16, NOTE_F4,16,

  NOTE_D4,-2,//15
  NOTE_F4,-4, NOTE_AS3,-4,
  NOTE_D4,-8, NOTE_DS4,-8, NOTE_D4,-8, NOTE_AS3,-8,
  NOTE_C4,-1,
  NOTE_C5,-2,
  NOTE_AS4,-2,
  NOTE_C4,-2,
  NOTE_G4,-2,
  NOTE_DS4,-2,
  NOTE_DS4,-4, NOTE_F4,-4, 
  NOTE_G4,-1,
  
  NOTE_C5,-2,//28
  NOTE_AS4,-2,
  NOTE_C4,-2,
  NOTE_G4,-2, 
  NOTE_DS4,-2,
  NOTE_DS4,-4, NOTE_D4,-4,
  NOTE_C5,8, NOTE_G4,8, NOTE_GS4,16, NOTE_AS4,16, NOTE_C5,8, NOTE_G4,8, NOTE_GS4,16, NOTE_AS4,16,
  NOTE_C5,8, NOTE_G4,8, NOTE_GS4,16, NOTE_AS4,16, NOTE_C5,8, NOTE_G4,8, NOTE_GS4,16, NOTE_AS4,16,
  
  REST,4, NOTE_GS5,16, NOTE_AS5,16, NOTE_C6,8, NOTE_G5,8, NOTE_GS5,16, NOTE_AS5,16,
  NOTE_C6,8, NOTE_G5,16, NOTE_GS5,16, NOTE_AS5,16, NOTE_C6,8, NOTE_G5,8, NOTE_GS5,16, NOTE_AS5,16 
};

const PROGMEM int sonic[] = {
  // Gren Hill Zone - Sonic the Hedgehog
  // Score available at https://musescore.com/user/248346/scores/461661
  // Theme by Masato Nakamura, arranged by Teddy Mason
  REST,2, NOTE_D5,8, NOTE_B4,4, NOTE_D5,8, //1
  NOTE_CS5,4, NOTE_D5,8, NOTE_CS5,4, NOTE_A4,2, 
  REST,8, NOTE_A4,8, NOTE_FS5,8, NOTE_E5,4, NOTE_D5,8,
  NOTE_CS5,4, NOTE_D5,8, NOTE_CS5,4, NOTE_A4,2, 
  REST,4, NOTE_D5,8, NOTE_B4,4, NOTE_D5,8,
  NOTE_CS5,4, NOTE_D5,8, NOTE_CS5,4, NOTE_A4,2, 

  REST,8, NOTE_B4,8, NOTE_B4,8, NOTE_G4,4, NOTE_B4,8, //7
  NOTE_A4,4, NOTE_B4,8, NOTE_A4,4, NOTE_D4,2,
  REST,4, NOTE_D5,8, NOTE_B4,4, NOTE_D5,8,
  NOTE_CS5,4, NOTE_D5,8, NOTE_CS5,4, NOTE_A4,2, 
  REST,8, NOTE_A4,8, NOTE_FS5,8, NOTE_E5,4, NOTE_D5,8,
  NOTE_CS5,4, NOTE_D5,8, NOTE_CS5,4, NOTE_A4,2, 

  REST,4, NOTE_D5,8, NOTE_B4,4, NOTE_D5,8, //13
  NOTE_CS5,4, NOTE_D5,8, NOTE_CS5,4, NOTE_A4,2, 
  REST,8, NOTE_B4,8, NOTE_B4,8, NOTE_G4,4, NOTE_B4,8,
  NOTE_A4,4, NOTE_B4,8, NOTE_A4,4, NOTE_D4,8, NOTE_D4,8, NOTE_FS4,8,
  NOTE_E4,-1,
  REST,8, NOTE_D4,8, NOTE_E4,8, NOTE_FS4,-1,

  REST,8, NOTE_D4,8, NOTE_D4,8, NOTE_FS4,8, NOTE_F4,-1, //20
  REST,8, NOTE_D4,8, NOTE_F4,8, NOTE_E4,-1, //end 1

  //repeats from 1

  REST,2, NOTE_D5,8, NOTE_B4,4, NOTE_D5,8, //1
  NOTE_CS5,4, NOTE_D5,8, NOTE_CS5,4, NOTE_A4,2, 
  REST,8, NOTE_A4,8, NOTE_FS5,8, NOTE_E5,4, NOTE_D5,8,
  NOTE_CS5,4, NOTE_D5,8, NOTE_CS5,4, NOTE_A4,2, 
  REST,4, NOTE_D5,8, NOTE_B4,4, NOTE_D5,8,
  NOTE_CS5,4, NOTE_D5,8, NOTE_CS5,4, NOTE_A4,2, 

  REST,8, NOTE_B4,8, NOTE_B4,8, NOTE_G4,4, NOTE_B4,8, //7
  NOTE_A4,4, NOTE_B4,8, NOTE_A4,4, NOTE_D4,2,
  REST,4, NOTE_D5,8, NOTE_B4,4, NOTE_D5,8,
  NOTE_CS5,4, NOTE_D5,8, NOTE_CS5,4, NOTE_A4,2, 
  REST,8, NOTE_A4,8, NOTE_FS5,8, NOTE_E5,4, NOTE_D5,8,
  NOTE_CS5,4, NOTE_D5,8, NOTE_CS5,4, NOTE_A4,2, 

  REST,4, NOTE_D5,8, NOTE_B4,4, NOTE_D5,8, //13
  NOTE_CS5,4, NOTE_D5,8, NOTE_CS5,4, NOTE_A4,2, 
  REST,8, NOTE_B4,8, NOTE_B4,8, NOTE_G4,4, NOTE_B4,8,
  NOTE_A4,4, NOTE_B4,8, NOTE_A4,4, NOTE_D4,8, NOTE_D4,8, NOTE_FS4,8,
  NOTE_E4,-1,
  REST,8, NOTE_D4,8, NOTE_E4,8, NOTE_FS4,-1,

  REST,8, NOTE_D4,8, NOTE_D4,8, NOTE_FS4,8, NOTE_F4,-1, //20
  REST,8, NOTE_D4,8, NOTE_F4,8, NOTE_E4,8, //end 2
  NOTE_E4,-2, NOTE_A4,8, NOTE_CS5,8, 
  NOTE_FS5,8, NOTE_E5,4, NOTE_D5,8, NOTE_A5,-4
};

const PROGMEM int greensleeves[] = {
  // Greensleeves 
  // Score available at https://musescore.com/user/168402/scores/1396946
  // Alexander Trompoukis
  NOTE_G4,8,//1
  NOTE_AS4,4, NOTE_C5,8, NOTE_D5,-8, NOTE_DS5,16, NOTE_D5,8,
  NOTE_C5,4, NOTE_A4,8, NOTE_F4,-8, NOTE_G4,16, NOTE_A4,8,
  NOTE_AS4,4, NOTE_G4,8, NOTE_G4,-8, NOTE_FS4,16, NOTE_G4,8,
  NOTE_A4,4, NOTE_FS4,8, NOTE_D4,4, NOTE_G4,8,
  
  NOTE_AS4,4, NOTE_C5,8, NOTE_D5,-8, NOTE_DS5,16, NOTE_D5,8,//6
  NOTE_C5,4, NOTE_A4,8, NOTE_F4,-8, NOTE_G4,16, NOTE_A4,8,
  NOTE_AS4,-8, NOTE_A4,16, NOTE_G4,8, NOTE_FS4,-8, NOTE_E4,16, NOTE_FS4,8, 
  NOTE_G4,-2,
  NOTE_F5,2, NOTE_E5,16, NOTE_D5,8,

  NOTE_C5,4, NOTE_A4,8, NOTE_F4,-8, NOTE_G4,16, NOTE_A4,8,//11
  NOTE_AS4,4, NOTE_G4,8, NOTE_G4,-8, NOTE_FS4,16, NOTE_G4,8,
  NOTE_A4,4, NOTE_FS4,8, NOTE_D4,04,
  NOTE_F5,2, NOTE_E5,16, NOTE_D5,8,
  NOTE_C5,4, NOTE_A4,8, NOTE_F4,-8, NOTE_G4,16, NOTE_A4,8,

  NOTE_AS4,-8, NOTE_A4,16, NOTE_G4,8, NOTE_FS4,-8, NOTE_E4,16, NOTE_FS4,8,//16
  NOTE_G4,-2,

  //repeats from the beginning

  NOTE_G4,8,//1
  NOTE_AS4,4, NOTE_C5,8, NOTE_D5,-8, NOTE_DS5,16, NOTE_D5,8,
  NOTE_C5,4, NOTE_A4,8, NOTE_F4,-8, NOTE_G4,16, NOTE_A4,8,
  NOTE_AS4,4, NOTE_G4,8, NOTE_G4,-8, NOTE_FS4,16, NOTE_G4,8,
  NOTE_A4,4, NOTE_FS4,8, NOTE_D4,4, NOTE_G4,8,
  
  NOTE_AS4,4, NOTE_C5,8, NOTE_D5,-8, NOTE_DS5,16, NOTE_D5,8,//6
  NOTE_C5,4, NOTE_A4,8, NOTE_F4,-8, NOTE_G4,16, NOTE_A4,8,
  NOTE_AS4,-8, NOTE_A4,16, NOTE_G4,8, NOTE_FS4,-8, NOTE_E4,16, NOTE_FS4,8, 
  NOTE_G4,-2,
  NOTE_F5,2, NOTE_E5,16, NOTE_D5,8,

  NOTE_C5,4, NOTE_A4,8, NOTE_F4,-8, NOTE_G4,16, NOTE_A4,8,//11
  NOTE_AS4,4, NOTE_G4,8, NOTE_G4,-8, NOTE_FS4,16, NOTE_G4,8,
  NOTE_A4,4, NOTE_FS4,8, NOTE_D4,04,
  NOTE_F5,2, NOTE_E5,16, NOTE_D5,8,
  NOTE_C5,4, NOTE_A4,8, NOTE_F4,-8, NOTE_G4,16, NOTE_A4,8,

  NOTE_AS4,-8, NOTE_A4,16, NOTE_G4,8, NOTE_FS4,-8, NOTE_E4,16, NOTE_FS4,8,//16
  NOTE_G4,-2
};

const PROGMEM int happybirthday[] = {
  // Happy Birthday
  // Score available at https://musescore.com/user/8221/scores/26906
  NOTE_C4,4, NOTE_C4,8, 
  NOTE_D4,-4, NOTE_C4,-4, NOTE_F4,-4,
  NOTE_E4,-2, NOTE_C4,4, NOTE_C4,8, 
  NOTE_D4,-4, NOTE_C4,-4, NOTE_G4,-4,
  NOTE_F4,-2, NOTE_C4,4, NOTE_C4,8,

  NOTE_C5,-4, NOTE_A4,-4, NOTE_F4,-4, 
  NOTE_E4,-4, NOTE_D4,-4, NOTE_AS4,4, NOTE_AS4,8,
  NOTE_A4,-4, NOTE_F4,-4, NOTE_G4,-4,
  NOTE_F4,-2,
};

const PROGMEM int harrypotter[] = {
  // Hedwig's theme fromn the Harry Potter Movies
  // Socre from https://musescore.com/user/3811306/scores/4906610
  REST, 2, NOTE_D4, 4,
  NOTE_G4, -4, NOTE_AS4, 8, NOTE_A4, 4,
  NOTE_G4, 2, NOTE_D5, 4,
  NOTE_C5, -2, 
  NOTE_A4, -2,
  NOTE_G4, -4, NOTE_AS4, 8, NOTE_A4, 4,
  NOTE_F4, 2, NOTE_GS4, 4,
  NOTE_D4, -1, 
  NOTE_D4, 4,

  NOTE_G4, -4, NOTE_AS4, 8, NOTE_A4, 4, //10
  NOTE_G4, 2, NOTE_D5, 4,
  NOTE_F5, 2, NOTE_E5, 4,
  NOTE_DS5, 2, NOTE_B4, 4,
  NOTE_DS5, -4, NOTE_D5, 8, NOTE_CS5, 4,
  NOTE_CS4, 2, NOTE_B4, 4,
  NOTE_G4, -1,
  NOTE_AS4, 4,
     
  NOTE_D5, 2, NOTE_AS4, 4,//18
  NOTE_D5, 2, NOTE_AS4, 4,
  NOTE_DS5, 2, NOTE_D5, 4,
  NOTE_CS5, 2, NOTE_A4, 4,
  NOTE_AS4, -4, NOTE_D5, 8, NOTE_CS5, 4,
  NOTE_CS4, 2, NOTE_D4, 4,
  NOTE_D5, -1, 
  REST,4, NOTE_AS4,4,  

  NOTE_D5, 2, NOTE_AS4, 4,//26
  NOTE_D5, 2, NOTE_AS4, 4,
  NOTE_F5, 2, NOTE_E5, 4,
  NOTE_DS5, 2, NOTE_B4, 4,
  NOTE_DS5, -4, NOTE_D5, 8, NOTE_CS5, 4,
  NOTE_CS4, 2, NOTE_AS4, 4,
  NOTE_G4, -1
};

const PROGMEM int darthvader[] = {
  // Dart Vader theme (Imperial March) - Star wars 
  // Score available at https://musescore.com/user/202909/scores/1141521
  // The tenor saxophone part was used
  NOTE_A4,-4, NOTE_A4,-4, NOTE_A4,16, NOTE_A4,16, NOTE_A4,16, NOTE_A4,16, NOTE_F4,8, REST,8,
  NOTE_A4,-4, NOTE_A4,-4, NOTE_A4,16, NOTE_A4,16, NOTE_A4,16, NOTE_A4,16, NOTE_F4,8, REST,8,
  NOTE_A4,4, NOTE_A4,4, NOTE_A4,4, NOTE_F4,-8, NOTE_C5,16,

  NOTE_A4,4, NOTE_F4,-8, NOTE_C5,16, NOTE_A4,2,//4
  NOTE_E5,4, NOTE_E5,4, NOTE_E5,4, NOTE_F5,-8, NOTE_C5,16,
  NOTE_A4,4, NOTE_F4,-8, NOTE_C5,16, NOTE_A4,2,
  
  NOTE_A5,4, NOTE_A4,-8, NOTE_A4,16, NOTE_A5,4, NOTE_GS5,-8, NOTE_G5,16, //7 
  NOTE_DS5,16, NOTE_D5,16, NOTE_DS5,8, REST,8, NOTE_A4,8, NOTE_DS5,4, NOTE_D5,-8, NOTE_CS5,16,

  NOTE_C5,16, NOTE_B4,16, NOTE_C5,16, REST,8, NOTE_F4,8, NOTE_GS4,4, NOTE_F4,-8, NOTE_A4,-16,//9
  NOTE_C5,4, NOTE_A4,-8, NOTE_C5,16, NOTE_E5,2,

  NOTE_A5,4, NOTE_A4,-8, NOTE_A4,16, NOTE_A5,4, NOTE_GS5,-8, NOTE_G5,16, //7 
  NOTE_DS5,16, NOTE_D5,16, NOTE_DS5,8, REST,8, NOTE_A4,8, NOTE_DS5,4, NOTE_D5,-8, NOTE_CS5,16,

  NOTE_C5,16, NOTE_B4,16, NOTE_C5,16, REST,8, NOTE_F4,8, NOTE_GS4,4, NOTE_F4,-8, NOTE_A4,-16,//9
  NOTE_A4,4, NOTE_F4,-8, NOTE_C5,16, NOTE_A4,2
};

const PROGMEM int jigglypuff[] = {
  // Jigglypuff's Song
  // Score available at https://musescore.com/user/28109683/scores/5044153
  NOTE_D5,-4, NOTE_A5,8, NOTE_FS5,8, NOTE_D5,8,
  NOTE_E5,-4, NOTE_FS5,8, NOTE_G5,4,
  NOTE_FS5,-4, NOTE_E5,8, NOTE_FS5,4,
  NOTE_D5,-2,
  NOTE_D5,-4, NOTE_A5,8, NOTE_FS5,8, NOTE_D5,8,
  NOTE_E5,-4, NOTE_FS5,8, NOTE_G5,4,
  NOTE_FS5,-1,
  NOTE_D5,-4, NOTE_A5,8, NOTE_FS5,8, NOTE_D5,8,
  NOTE_E5,-4, NOTE_FS5,8, NOTE_G5,4,
  
  NOTE_FS5,-4, NOTE_E5,8, NOTE_FS5,4,
  NOTE_D5,-2,
  NOTE_D5,-4, NOTE_A5,8, NOTE_FS5,8, NOTE_D5,8,
  NOTE_E5,-4, NOTE_FS5,8, NOTE_G5,4,
  NOTE_FS5,-1
};

const PROGMEM int cat[] = {
  // Keyboard cat
  // Score available at https://musescore.com/user/142788/scores/147371
  REST,1,
  REST,1,
  NOTE_C4,4, NOTE_E4,4, NOTE_G4,4, NOTE_E4,4, 
  NOTE_C4,4, NOTE_E4,8, NOTE_G4,-4, NOTE_E4,4,
  NOTE_A3,4, NOTE_C4,4, NOTE_E4,4, NOTE_C4,4,
  NOTE_A3,4, NOTE_C4,8, NOTE_E4,-4, NOTE_C4,4,
  NOTE_G3,4, NOTE_B3,4, NOTE_D4,4, NOTE_B3,4,
  NOTE_G3,4, NOTE_B3,8, NOTE_D4,-4, NOTE_B3,4,

  NOTE_G3,4, NOTE_G3,8, NOTE_G3,-4, NOTE_G3,8, NOTE_G3,4, 
  NOTE_G3,4, NOTE_G3,4, NOTE_G3,8, NOTE_G3,4,
  NOTE_C4,4, NOTE_E4,4, NOTE_G4,4, NOTE_E4,4, 
  NOTE_C4,4, NOTE_E4,8, NOTE_G4,-4, NOTE_E4,4,
  NOTE_A3,4, NOTE_C4,4, NOTE_E4,4, NOTE_C4,4,
  NOTE_A3,4, NOTE_C4,8, NOTE_E4,-4, NOTE_C4,4,
  NOTE_G3,4, NOTE_B3,4, NOTE_D4,4, NOTE_B3,4,
  NOTE_G3,4, NOTE_B3,8, NOTE_D4,-4, NOTE_B3,4,

  NOTE_G3,-1
};

const PROGMEM int christmas[] = {
  // We Wish You a Merry Christmas
  // Score available at https://musescore.com/user/6208766/scores/1497501
  NOTE_C5,4, //1
  NOTE_F5,4, NOTE_F5,8, NOTE_G5,8, NOTE_F5,8, NOTE_E5,8,
  NOTE_D5,4, NOTE_D5,4, NOTE_D5,4,
  NOTE_G5,4, NOTE_G5,8, NOTE_A5,8, NOTE_G5,8, NOTE_F5,8,
  NOTE_E5,4, NOTE_C5,4, NOTE_C5,4,
  NOTE_A5,4, NOTE_A5,8, NOTE_AS5,8, NOTE_A5,8, NOTE_G5,8,
  NOTE_F5,4, NOTE_D5,4, NOTE_C5,8, NOTE_C5,8,
  NOTE_D5,4, NOTE_G5,4, NOTE_E5,4,

  NOTE_F5,2, NOTE_C5,4, //8 
  NOTE_F5,4, NOTE_F5,8, NOTE_G5,8, NOTE_F5,8, NOTE_E5,8,
  NOTE_D5,4, NOTE_D5,4, NOTE_D5,4,
  NOTE_G5,4, NOTE_G5,8, NOTE_A5,8, NOTE_G5,8, NOTE_F5,8,
  NOTE_E5,4, NOTE_C5,4, NOTE_C5,4,
  NOTE_A5,4, NOTE_A5,8, NOTE_AS5,8, NOTE_A5,8, NOTE_G5,8,
  NOTE_F5,4, NOTE_D5,4, NOTE_C5,8, NOTE_C5,8,
  NOTE_D5,4, NOTE_G5,4, NOTE_E5,4,
  NOTE_F5,2, NOTE_C5,4,

  NOTE_F5,4, NOTE_F5,4, NOTE_F5,4,//17
  NOTE_E5,2, NOTE_E5,4,
  NOTE_F5,4, NOTE_E5,4, NOTE_D5,4,
  NOTE_C5,2, NOTE_A5,4,
  NOTE_AS5,4, NOTE_A5,4, NOTE_G5,4,
  NOTE_C6,4, NOTE_C5,4, NOTE_C5,8, NOTE_C5,8,
  NOTE_D5,4, NOTE_G5,4, NOTE_E5,4,
  NOTE_F5,2, NOTE_C5,4, 
  NOTE_F5,4, NOTE_F5,8, NOTE_G5,8, NOTE_F5,8, NOTE_E5,8,
  NOTE_D5,4, NOTE_D5,4, NOTE_D5,4,
  
  NOTE_G5,4, NOTE_G5,8, NOTE_A5,8, NOTE_G5,8, NOTE_F5,8, //27
  NOTE_E5,4, NOTE_C5,4, NOTE_C5,4,
  NOTE_A5,4, NOTE_A5,8, NOTE_AS5,8, NOTE_A5,8, NOTE_G5,8,
  NOTE_F5,4, NOTE_D5,4, NOTE_C5,8, NOTE_C5,8,
  NOTE_D5,4, NOTE_G5,4, NOTE_E5,4,
  NOTE_F5,2, NOTE_C5,4,
  NOTE_F5,4, NOTE_F5,4, NOTE_F5,4,
  NOTE_E5,2, NOTE_E5,4,
  NOTE_F5,4, NOTE_E5,4, NOTE_D5,4,
  
  NOTE_C5,2, NOTE_A5,4,//36
  NOTE_AS5,4, NOTE_A5,4, NOTE_G5,4,
  NOTE_C6,4, NOTE_C5,4, NOTE_C5,8, NOTE_C5,8,
  NOTE_D5,4, NOTE_G5,4, NOTE_E5,4,
  NOTE_F5,2, NOTE_C5,4, 
  NOTE_F5,4, NOTE_F5,8, NOTE_G5,8, NOTE_F5,8, NOTE_E5,8,
  NOTE_D5,4, NOTE_D5,4, NOTE_D5,4,
  NOTE_G5,4, NOTE_G5,8, NOTE_A5,8, NOTE_G5,8, NOTE_F5,8, 
  NOTE_E5,4, NOTE_C5,4, NOTE_C5,4,
  
  NOTE_A5,4, NOTE_A5,8, NOTE_AS5,8, NOTE_A5,8, NOTE_G5,8,//45
  NOTE_F5,4, NOTE_D5,4, NOTE_C5,8, NOTE_C5,8,
  NOTE_D5,4, NOTE_G5,4, NOTE_E5,4,
  NOTE_F5,2, NOTE_C5,4,
  NOTE_F5,4, NOTE_F5,8, NOTE_G5,8, NOTE_F5,8, NOTE_E5,8,
  NOTE_D5,4, NOTE_D5,4, NOTE_D5,4,
  NOTE_G5,4, NOTE_G5,8, NOTE_A5,8, NOTE_G5,8, NOTE_F5,8,
  NOTE_E5,4, NOTE_C5,4, NOTE_C5,4,
  
  NOTE_A5,4, NOTE_A5,8, NOTE_AS5,8, NOTE_A5,8, NOTE_G5,8, //53
  NOTE_F5,4, NOTE_D5,4, NOTE_C5,8, NOTE_C5,8,
  NOTE_D5,4, NOTE_G5,4, NOTE_E5,4,
  NOTE_F5,2, REST,4
};

const PROGMEM int mii[] = {
  // Mii Channel theme 
  // Score available at https://musescore.com/user/16403456/scores/4984153
  // Uploaded by Catalina Andrade 
  NOTE_FS4,8, REST,8, NOTE_A4,8, NOTE_CS5,8, REST,8,NOTE_A4,8, REST,8, NOTE_FS4,8, //1
  NOTE_D4,8, NOTE_D4,8, NOTE_D4,8, REST,8, REST,4, REST,8, NOTE_CS4,8,
  NOTE_D4,8, NOTE_FS4,8, NOTE_A4,8, NOTE_CS5,8, REST,8, NOTE_A4,8, REST,8, NOTE_F4,8,
  NOTE_E5,-4, NOTE_DS5,8, NOTE_D5,8, REST,8, REST,4,
  
  NOTE_GS4,8, REST,8, NOTE_CS5,8, NOTE_FS4,8, REST,8,NOTE_CS5,8, REST,8, NOTE_GS4,8, //5
  REST,8, NOTE_CS5,8, NOTE_G4,8, NOTE_FS4,8, REST,8, NOTE_E4,8, REST,8,
  NOTE_E4,8, NOTE_E4,8, NOTE_E4,8, REST,8, REST,4, NOTE_E4,8, NOTE_E4,8,
  NOTE_E4,8, REST,8, REST,4, NOTE_DS4,8, NOTE_D4,8, 

  NOTE_CS4,8, REST,8, NOTE_A4,8, NOTE_CS5,8, REST,8,NOTE_A4,8, REST,8, NOTE_FS4,8, //9
  NOTE_D4,8, NOTE_D4,8, NOTE_D4,8, REST,8, NOTE_E5,8, NOTE_E5,8, NOTE_E5,8, REST,8,
  REST,8, NOTE_FS4,8, NOTE_A4,8, NOTE_CS5,8, REST,8, NOTE_A4,8, REST,8, NOTE_F4,8,
  NOTE_E5,2, NOTE_D5,8, REST,8, REST,4,

  NOTE_B4,8, NOTE_G4,8, NOTE_D4,8, NOTE_CS4,4, NOTE_B4,8, NOTE_G4,8, NOTE_CS4,8, //13
  NOTE_A4,8, NOTE_FS4,8, NOTE_C4,8, NOTE_B3,4, NOTE_F4,8, NOTE_D4,8, NOTE_B3,8,
  NOTE_E4,8, NOTE_E4,8, NOTE_E4,8, REST,4, REST,4, NOTE_AS4,4,
  NOTE_CS5,8, NOTE_D5,8, NOTE_FS5,8, NOTE_A5,8, REST,8, REST,4, 

  REST,2, NOTE_A3,4, NOTE_AS3,4, //17 
  NOTE_A3,-4, NOTE_A3,8, NOTE_A3,2,
  REST,4, NOTE_A3,8, NOTE_AS3,8, NOTE_A3,8, NOTE_F4,4, NOTE_C4,8,
  NOTE_A3,-4, NOTE_A3,8, NOTE_A3,2,

  REST,2, NOTE_B3,4, NOTE_C4,4, //21
  NOTE_CS4,-4, NOTE_C4,8, NOTE_CS4,2,
  REST,4, NOTE_CS4,8, NOTE_C4,8, NOTE_CS4,8, NOTE_GS4,4, NOTE_DS4,8,
  NOTE_CS4,-4, NOTE_DS4,8, NOTE_B3,1,
  
  NOTE_E4,4, NOTE_E4,4, NOTE_E4,4, REST,8,//25

  //repeats 1-25

  NOTE_FS4,8, REST,8, NOTE_A4,8, NOTE_CS5,8, REST,8,NOTE_A4,8, REST,8, NOTE_FS4,8, //1
  NOTE_D4,8, NOTE_D4,8, NOTE_D4,8, REST,8, REST,4, REST,8, NOTE_CS4,8,
  NOTE_D4,8, NOTE_FS4,8, NOTE_A4,8, NOTE_CS5,8, REST,8, NOTE_A4,8, REST,8, NOTE_F4,8,
  NOTE_E5,-4, NOTE_DS5,8, NOTE_D5,8, REST,8, REST,4,
  
  NOTE_GS4,8, REST,8, NOTE_CS5,8, NOTE_FS4,8, REST,8,NOTE_CS5,8, REST,8, NOTE_GS4,8, //5
  REST,8, NOTE_CS5,8, NOTE_G4,8, NOTE_FS4,8, REST,8, NOTE_E4,8, REST,8,
  NOTE_E4,8, NOTE_E4,8, NOTE_E4,8, REST,8, REST,4, NOTE_E4,8, NOTE_E4,8,
  NOTE_E4,8, REST,8, REST,4, NOTE_DS4,8, NOTE_D4,8, 

  NOTE_CS4,8, REST,8, NOTE_A4,8, NOTE_CS5,8, REST,8,NOTE_A4,8, REST,8, NOTE_FS4,8, //9
  NOTE_D4,8, NOTE_D4,8, NOTE_D4,8, REST,8, NOTE_E5,8, NOTE_E5,8, NOTE_E5,8, REST,8,
  REST,8, NOTE_FS4,8, NOTE_A4,8, NOTE_CS5,8, REST,8, NOTE_A4,8, REST,8, NOTE_F4,8,
  NOTE_E5,2, NOTE_D5,8, REST,8, REST,4,

  NOTE_B4,8, NOTE_G4,8, NOTE_D4,8, NOTE_CS4,4, NOTE_B4,8, NOTE_G4,8, NOTE_CS4,8, //13
  NOTE_A4,8, NOTE_FS4,8, NOTE_C4,8, NOTE_B3,4, NOTE_F4,8, NOTE_D4,8, NOTE_B3,8,
  NOTE_E4,8, NOTE_E4,8, NOTE_E4,8, REST,4, REST,4, NOTE_AS4,4,
  NOTE_CS5,8, NOTE_D5,8, NOTE_FS5,8, NOTE_A5,8, REST,8, REST,4, 

  REST,2, NOTE_A3,4, NOTE_AS3,4, //17 
  NOTE_A3,-4, NOTE_A3,8, NOTE_A3,2,
  REST,4, NOTE_A3,8, NOTE_AS3,8, NOTE_A3,8, NOTE_F4,4, NOTE_C4,8,
  NOTE_A3,-4, NOTE_A3,8, NOTE_A3,2,

  REST,2, NOTE_B3,4, NOTE_C4,4, //21
  NOTE_CS4,-4, NOTE_C4,8, NOTE_CS4,2,
  REST,4, NOTE_CS4,8, NOTE_C4,8, NOTE_CS4,8, NOTE_GS4,4, NOTE_DS4,8,
  NOTE_CS4,-4, NOTE_DS4,8, NOTE_B3,1,
  
  NOTE_E4,4, NOTE_E4,4, NOTE_E4,4, REST,8,//25
};

const PROGMEM int minuet[] = {
  // Minuet in G - Petzold
  // Score available at https://musescore.com/user/3402766/scores/1456391
  NOTE_D5,4, NOTE_G4,8, NOTE_A4,8, NOTE_B4,8, NOTE_C5,8, //1
  NOTE_D5,4, NOTE_G4,4, NOTE_G4,4,
  NOTE_E5,4, NOTE_C5,8, NOTE_D5,8, NOTE_E5,8, NOTE_FS5,8,
  NOTE_G5,4, NOTE_G4,4, NOTE_G4,4,
  NOTE_C5,4, NOTE_D5,8, NOTE_C5,8, NOTE_B4,8, NOTE_A4,8,
  
  NOTE_B4,4, NOTE_C5,8, NOTE_B4,8, NOTE_A4,8, NOTE_G4,8,//6
  NOTE_FS4,4, NOTE_G4,8, NOTE_A4,8, NOTE_B4,8, NOTE_G4,8,
  NOTE_A4,-2,
  NOTE_D5,4, NOTE_G4,8, NOTE_A4,8, NOTE_B4,8, NOTE_C5,8, 
  NOTE_D5,4, NOTE_G4,4, NOTE_G4,4,
  NOTE_E5,4, NOTE_C5,8, NOTE_D5,8, NOTE_E5,8, NOTE_FS5,8,
  
  NOTE_G5,4, NOTE_G4,4, NOTE_G4,4,
  NOTE_C5,4, NOTE_D5,8, NOTE_C5,8, NOTE_B4,8, NOTE_A4,8, //12
  NOTE_B4,4, NOTE_C5,8, NOTE_B4,8, NOTE_A4,8, NOTE_G4,8,
  NOTE_A4,4, NOTE_B4,8, NOTE_A4,8, NOTE_G4,8, NOTE_FS4,8,
  NOTE_G4,-2,

  //repeats from 1

  NOTE_D5,4, NOTE_G4,8, NOTE_A4,8, NOTE_B4,8, NOTE_C5,8, //1
  NOTE_D5,4, NOTE_G4,4, NOTE_G4,4,
  NOTE_E5,4, NOTE_C5,8, NOTE_D5,8, NOTE_E5,8, NOTE_FS5,8,
  NOTE_G5,4, NOTE_G4,4, NOTE_G4,4,
  NOTE_C5,4, NOTE_D5,8, NOTE_C5,8, NOTE_B4,8, NOTE_A4,8,
  
  NOTE_B4,4, NOTE_C5,8, NOTE_B4,8, NOTE_A4,8, NOTE_G4,8,//6
  NOTE_FS4,4, NOTE_G4,8, NOTE_A4,8, NOTE_B4,8, NOTE_G4,8,
  NOTE_A4,-2,
  NOTE_D5,4, NOTE_G4,8, NOTE_A4,8, NOTE_B4,8, NOTE_C5,8, 
  NOTE_D5,4, NOTE_G4,4, NOTE_G4,4,
  NOTE_E5,4, NOTE_C5,8, NOTE_D5,8, NOTE_E5,8, NOTE_FS5,8,
  
  NOTE_G5,4, NOTE_G4,4, NOTE_G4,4,
  NOTE_C5,4, NOTE_D5,8, NOTE_C5,8, NOTE_B4,8, NOTE_A4,8, //12
  NOTE_B4,4, NOTE_C5,8, NOTE_B4,8, NOTE_A4,8, NOTE_G4,8,
  NOTE_A4,4, NOTE_B4,8, NOTE_A4,8, NOTE_G4,8, NOTE_FS4,8,
  NOTE_G4,-2,

  //continues from 17

  NOTE_B5,4, NOTE_G5,8, NOTE_A5,8, NOTE_B5,8, NOTE_G5,8,//17
  NOTE_A5,4, NOTE_D5,8, NOTE_E5,8, NOTE_FS5,8, NOTE_D5,8,
  NOTE_G5,4, NOTE_E5,8, NOTE_FS5,8, NOTE_G5,8, NOTE_D5,8,
  NOTE_CS5,4, NOTE_B4,8, NOTE_CS5,8, NOTE_A4,4,
  NOTE_A4,8, NOTE_B4,8, NOTE_CS5,8, NOTE_D5,8, NOTE_E5,8, NOTE_FS5,8,

  NOTE_G5,4, NOTE_FS5,4, NOTE_E5,4, //22
  NOTE_FS5,4, NOTE_A4,4, NOTE_CS5,4,
  NOTE_D5,-2,
  NOTE_D5,4, NOTE_G4,8, NOTE_FS5,8, NOTE_G4,4,
  NOTE_E5,4,  NOTE_G4,8, NOTE_FS4,8, NOTE_G4,4,
  NOTE_D5,4, NOTE_C5,4, NOTE_B4,4,

  NOTE_A4,8, NOTE_G4,8, NOTE_FS4,8, NOTE_G4,8, NOTE_A4,4, //28
  NOTE_D4,8, NOTE_E4,8, NOTE_FS4,8, NOTE_G4,8, NOTE_A4,8, NOTE_B4,8,
  NOTE_C5,4, NOTE_B4,4, NOTE_A4,4,
  NOTE_B4,8, NOTE_D5,8, NOTE_G4,4, NOTE_FS4,4,
  NOTE_G4,-2
};

const PROGMEM int rickroll[] = {
  // Never Gonna Give You Up - Rick Astley
  // Score available at https://musescore.com/chlorondria_5/never-gonna-give-you-up_alto-sax
  // Arranged by Chlorondria
  NOTE_D5,-4, NOTE_E5,-4, NOTE_A4,4, //1
  NOTE_E5,-4, NOTE_FS5,-4, NOTE_A5,16, NOTE_G5,16, NOTE_FS5,8,
  NOTE_D5,-4, NOTE_E5,-4, NOTE_A4,2,
  NOTE_A4,16, NOTE_A4,16, NOTE_B4,16, NOTE_D5,8, NOTE_D5,16,
  NOTE_D5,-4, NOTE_E5,-4, NOTE_A4,4, //repeat from 1
  NOTE_E5,-4, NOTE_FS5,-4, NOTE_A5,16, NOTE_G5,16, NOTE_FS5,8,
  NOTE_D5,-4, NOTE_E5,-4, NOTE_A4,2,
  NOTE_A4,16, NOTE_A4,16, NOTE_B4,16, NOTE_D5,8, NOTE_D5,16,
  REST,4, NOTE_B4,8, NOTE_CS5,8, NOTE_D5,8, NOTE_D5,8, NOTE_E5,8, NOTE_CS5,-8,
  NOTE_B4,16, NOTE_A4,2, REST,4, 

  REST,8, NOTE_B4,8, NOTE_B4,8, NOTE_CS5,8, NOTE_D5,8, NOTE_B4,4, NOTE_A4,8, //7
  NOTE_A5,8, REST,8, NOTE_A5,8, NOTE_E5,-4, REST,4, 
  NOTE_B4,8, NOTE_B4,8, NOTE_CS5,8, NOTE_D5,8, NOTE_B4,8, NOTE_D5,8, NOTE_E5,8, REST,8,
  REST,8, NOTE_CS5,8, NOTE_B4,8, NOTE_A4,-4, REST,4,
  REST,8, NOTE_B4,8, NOTE_B4,8, NOTE_CS5,8, NOTE_D5,8, NOTE_B4,8, NOTE_A4,4,
  NOTE_E5,8, NOTE_E5,8, NOTE_E5,8, NOTE_FS5,8, NOTE_E5,4, REST,4,
   
  NOTE_D5,2, NOTE_E5,8, NOTE_FS5,8, NOTE_D5,8, //13
  NOTE_E5,8, NOTE_E5,8, NOTE_E5,8, NOTE_FS5,8, NOTE_E5,4, NOTE_A4,4,
  REST,2, NOTE_B4,8, NOTE_CS5,8, NOTE_D5,8, NOTE_B4,8,
  REST,8, NOTE_E5,8, NOTE_FS5,8, NOTE_E5,-4, NOTE_A4,16, NOTE_B4,16, NOTE_D5,16, NOTE_B4,16,
  NOTE_FS5,-8, NOTE_FS5,-8, NOTE_E5,-4, NOTE_A4,16, NOTE_B4,16, NOTE_D5,16, NOTE_B4,16,

  NOTE_E5,-8, NOTE_E5,-8, NOTE_D5,-8, NOTE_CS5,16, NOTE_B4,-8, NOTE_A4,16, NOTE_B4,16, NOTE_D5,16, NOTE_B4,16, //18
  NOTE_D5,4, NOTE_E5,8, NOTE_CS5,-8, NOTE_B4,16, NOTE_A4,8, NOTE_A4,8, NOTE_A4,8, 
  NOTE_E5,4, NOTE_D5,2, NOTE_A4,16, NOTE_B4,16, NOTE_D5,16, NOTE_B4,16,
  NOTE_FS5,-8, NOTE_FS5,-8, NOTE_E5,-4, NOTE_A4,16, NOTE_B4,16, NOTE_D5,16, NOTE_B4,16,
  NOTE_A5,4, NOTE_CS5,8, NOTE_D5,-8, NOTE_CS5,16, NOTE_B4,8, NOTE_A4,16, NOTE_B4,16, NOTE_D5,16, NOTE_B4,16,

  NOTE_D5,4, NOTE_E5,8, NOTE_CS5,-8, NOTE_B4,16, NOTE_A4,4, NOTE_A4,8,  //23
  NOTE_E5,4, NOTE_D5,2, REST,4,
  REST,8, NOTE_B4,8, NOTE_D5,8, NOTE_B4,8, NOTE_D5,8, NOTE_E5,4, REST,8,
  REST,8, NOTE_CS5,8, NOTE_B4,8, NOTE_A4,-4, REST,4,
  REST,8, NOTE_B4,8, NOTE_B4,8, NOTE_CS5,8, NOTE_D5,8, NOTE_B4,8, NOTE_A4,4,
  REST,8, NOTE_A5,8, NOTE_A5,8, NOTE_E5,8, NOTE_FS5,8, NOTE_E5,8, NOTE_D5,8,
  
  REST,8, NOTE_A4,8, NOTE_B4,8, NOTE_CS5,8, NOTE_D5,8, NOTE_B4,8, //29
  REST,8, NOTE_CS5,8, NOTE_B4,8, NOTE_A4,-4, REST,4,
  NOTE_B4,8, NOTE_B4,8, NOTE_CS5,8, NOTE_D5,8, NOTE_B4,8, NOTE_A4,4, REST,8,
  REST,8, NOTE_E5,8, NOTE_E5,8, NOTE_FS5,4, NOTE_E5,-4, 
  NOTE_D5,2, NOTE_D5,8, NOTE_E5,8, NOTE_FS5,8, NOTE_E5,4, 
  NOTE_E5,8, NOTE_E5,8, NOTE_FS5,8, NOTE_E5,8, NOTE_A4,8, NOTE_A4,4,

  REST,-4, NOTE_A4,8, NOTE_B4,8, NOTE_CS5,8, NOTE_D5,8, NOTE_B4,8, //35
  REST,8, NOTE_E5,8, NOTE_FS5,8, NOTE_E5,-4, NOTE_A4,16, NOTE_B4,16, NOTE_D5,16, NOTE_B4,16,
  NOTE_FS5,-8, NOTE_FS5,-8, NOTE_E5,-4, NOTE_A4,16, NOTE_B4,16, NOTE_D5,16, NOTE_B4,16,
  NOTE_E5,-8, NOTE_E5,-8, NOTE_D5,-8, NOTE_CS5,16, NOTE_B4,8, NOTE_A4,16, NOTE_B4,16, NOTE_D5,16, NOTE_B4,16,
  NOTE_D5,4, NOTE_E5,8, NOTE_CS5,-8, NOTE_B4,16, NOTE_A4,4, NOTE_A4,8, 

   NOTE_E5,4, NOTE_D5,2, NOTE_A4,16, NOTE_B4,16, NOTE_D5,16, NOTE_B4,16, //40
  NOTE_FS5,-8, NOTE_FS5,-8, NOTE_E5,-4, NOTE_A4,16, NOTE_B4,16, NOTE_D5,16, NOTE_B4,16,
  NOTE_A5,4, NOTE_CS5,8, NOTE_D5,-8, NOTE_CS5,16, NOTE_B4,8, NOTE_A4,16, NOTE_B4,16, NOTE_D5,16, NOTE_B4,16,
  NOTE_D5,4, NOTE_E5,8, NOTE_CS5,-8, NOTE_B4,16, NOTE_A4,4, NOTE_A4,8,  
  NOTE_E5,4, NOTE_D5,2, NOTE_A4,16, NOTE_B4,16, NOTE_D5,16, NOTE_B4,16,
   
  NOTE_FS5,-8, NOTE_FS5,-8, NOTE_E5,-4, NOTE_A4,16, NOTE_B4,16, NOTE_D5,16, NOTE_B4,16, //45
  NOTE_A5,4, NOTE_CS5,8, NOTE_D5,-8, NOTE_CS5,16, NOTE_B4,8, NOTE_A4,16, NOTE_B4,16, NOTE_D5,16, NOTE_B4,16,
  NOTE_D5,4, NOTE_E5,8, NOTE_CS5,-8, NOTE_B4,16, NOTE_A4,4, NOTE_A4,8,  
  NOTE_E5,4, NOTE_D5,2, NOTE_A4,16, NOTE_B4,16, NOTE_D5,16, NOTE_B4,16,
  NOTE_FS5,-8, NOTE_FS5,-8, NOTE_E5,-4, NOTE_A4,16, NOTE_B4,16, NOTE_D5,16, NOTE_B4,16, //45
  
  NOTE_A5,4, NOTE_CS5,8, NOTE_D5,-8, NOTE_CS5,16, NOTE_B4,8, NOTE_A4,16, NOTE_B4,16, NOTE_D5,16, NOTE_B4,16,
  NOTE_D5,4, NOTE_E5,8, NOTE_CS5,-8, NOTE_B4,16, NOTE_A4,4, NOTE_A4,8, 

  NOTE_E5,4, NOTE_D5,2, REST,4
};

const PROGMEM int nokia[] = {
  // Nokia Ringtone 
  // Score available at https://musescore.com/user/29944637/scores/5266155
  NOTE_E5, 8, NOTE_D5, 8, NOTE_FS4, 4, NOTE_GS4, 4, 
  NOTE_CS5, 8, NOTE_B4, 8, NOTE_D4, 4, NOTE_E4, 4, 
  NOTE_B4, 8, NOTE_A4, 8, NOTE_CS4, 4, NOTE_E4, 4,
  NOTE_A4, 2, 
};

const PROGMEM int odetojoy[] = {
  NOTE_E4,4,  NOTE_E4,4,  NOTE_F4,4,  NOTE_G4,4,//1
  NOTE_G4,4,  NOTE_F4,4,  NOTE_E4,4,  NOTE_D4,4,
  NOTE_C4,4,  NOTE_C4,4,  NOTE_D4,4,  NOTE_E4,4,
  NOTE_E4,-4, NOTE_D4,8,  NOTE_D4,2,

  NOTE_E4,4,  NOTE_E4,4,  NOTE_F4,4,  NOTE_G4,4,//4
  NOTE_G4,4,  NOTE_F4,4,  NOTE_E4,4,  NOTE_D4,4,
  NOTE_C4,4,  NOTE_C4,4,  NOTE_D4,4,  NOTE_E4,4,
  NOTE_D4,-4,  NOTE_C4,8,  NOTE_C4,2,

  NOTE_D4,4,  NOTE_D4,4,  NOTE_E4,4,  NOTE_C4,4,//8
  NOTE_D4,4,  NOTE_E4,8,  NOTE_F4,8,  NOTE_E4,4, NOTE_C4,4,
  NOTE_D4,4,  NOTE_E4,8,  NOTE_F4,8,  NOTE_E4,4, NOTE_D4,4,
  NOTE_C4,4,  NOTE_D4,4,  NOTE_G3,2,

  NOTE_E4,4,  NOTE_E4,4,  NOTE_F4,4,  NOTE_G4,4,//12
  NOTE_G4,4,  NOTE_F4,4,  NOTE_E4,4,  NOTE_D4,4,
  NOTE_C4,4,  NOTE_C4,4,  NOTE_D4,4,  NOTE_E4,4,
  NOTE_D4,-4,  NOTE_C4,8,  NOTE_C4,2
};

const PROGMEM int pacman[] = {
  // Pacman
  // Score available at https://musescore.com/user/85429/scores/107109
  NOTE_B4, 16, NOTE_B5, 16, NOTE_FS5, 16, NOTE_DS5, 16, //1
  NOTE_B5, 32, NOTE_FS5, -16, NOTE_DS5, 8, NOTE_C5, 16,
  NOTE_C6, 16, NOTE_G6, 16, NOTE_E6, 16, NOTE_C6, 32, NOTE_G6, -16, NOTE_E6, 8,

  NOTE_B4, 16,  NOTE_B5, 16,  NOTE_FS5, 16,   NOTE_DS5, 16,  NOTE_B5, 32,  //2
  NOTE_FS5, -16, NOTE_DS5, 8,  NOTE_DS5, 32, NOTE_E5, 32,  NOTE_F5, 32,
  NOTE_F5, 32,  NOTE_FS5, 32,  NOTE_G5, 32,  NOTE_G5, 32, NOTE_GS5, 32,  NOTE_A5, 16, NOTE_B5, 8
};

const PROGMEM int pinkpanther[] = {
  // Pink Panther theme
  // Score available at https://musescore.com/benedictsong/the-pink-panther
  // Theme by Masato Nakamura, arranged by Teddy Mason
  REST,2, REST,4, REST,8, NOTE_DS4,8, 
  NOTE_E4,-4, REST,8, NOTE_FS4,8, NOTE_G4,-4, REST,8, NOTE_DS4,8,
  NOTE_E4,-8, NOTE_FS4,8,  NOTE_G4,-8, NOTE_C5,8, NOTE_B4,-8, NOTE_E4,8, NOTE_G4,-8, NOTE_B4,8,   
  NOTE_AS4,2, NOTE_A4,-16, NOTE_G4,-16, NOTE_E4,-16, NOTE_D4,-16, 
  NOTE_E4,2, REST,4, REST,8, NOTE_DS4,4,

  NOTE_E4,-4, REST,8, NOTE_FS4,8, NOTE_G4,-4, REST,8, NOTE_DS4,8,
  NOTE_E4,-8, NOTE_FS4,8,  NOTE_G4,-8, NOTE_C5,8, NOTE_B4,-8, NOTE_G4,8, NOTE_B4,-8, NOTE_E5,8,
  NOTE_DS5,1,   
  NOTE_D5,2, REST,4, REST,8, NOTE_DS4,8, 
  NOTE_E4,-4, REST,8, NOTE_FS4,8, NOTE_G4,-4, REST,8, NOTE_DS4,8,
  NOTE_E4,-8, NOTE_FS4,8,  NOTE_G4,-8, NOTE_C5,8, NOTE_B4,-8, NOTE_E4,8, NOTE_G4,-8, NOTE_B4,8,   
  
  NOTE_AS4,2, NOTE_A4,-16, NOTE_G4,-16, NOTE_E4,-16, NOTE_D4,-16, 
  NOTE_E4,-4, REST,4,
  REST,4, NOTE_E5,-8, NOTE_D5,8, NOTE_B4,-8, NOTE_A4,8, NOTE_G4,-8, NOTE_E4,-8,
  NOTE_AS4,16, NOTE_A4,-8, NOTE_AS4,16, NOTE_A4,-8, NOTE_AS4,16, NOTE_A4,-8, NOTE_AS4,16, NOTE_A4,-8,   
  NOTE_G4,-16, NOTE_E4,-16, NOTE_D4,-16, NOTE_E4,16, NOTE_E4,16, NOTE_E4,2
};

const PROGMEM int layton[] = {
  // Professor Layton's theme from 
  // Professor Layton and the Courious village
  // From the score by OliviaJelks 
  // available at https://musescore.com/user/311366/scores/373161
  
  // A B E bemol
  NOTE_D5,1, 
  NOTE_DS5,1,
  
  NOTE_F5,1, //7
  REST,4,  NOTE_F5,-4, NOTE_DS5,8,  NOTE_D5,8, NOTE_F5,1, NOTE_AS4,8, 
  NOTE_G4,-2, NOTE_F4,1, 
  NOTE_F4,1,
   
  REST,4, //12
  REST,8,
  NOTE_F4,8, NOTE_G4,8, NOTE_GS4,8, NOTE_AS4,8, NOTE_C5,8, 
  NOTE_D5,1, 
  NOTE_DS5,1,
  NOTE_F5,1,
  NOTE_F5,-4,  NOTE_DS5,8, NOTE_D5,8, NOTE_CS5,8,
  NOTE_C5,-2, NOTE_AS4,8,

  NOTE_G4,1, //18
  NOTE_F4,-1,
  REST,4,
  NOTE_D5,-4, REST,16, NOTE_D5,16, NOTE_D5,2, 
  REST,4, NOTE_D5,8, NOTE_DS5,8, NOTE_F5,8, NOTE_G5,8, NOTE_F5,8, NOTE_DS5,8, NOTE_D5,8,  

 
  NOTE_D5,-4, NOTE_DS5,16, NOTE_DS5,2, //23
  REST,4, NOTE_G4,8, NOTE_C5,8, NOTE_D5,8, NOTE_DS5,8, NOTE_F5,8, NOTE_DS5,8, NOTE_D5,8,
  NOTE_C5,-4, REST,16, NOTE_G4,2,
  REST,4, NOTE_G4,8, NOTE_GS4,8, NOTE_AS4,8, NOTE_C5,8, NOTE_AS4,8, NOTE_GS4,8, NOTE_G5,8,
  
  NOTE_F4,-4,  NOTE_AS4,-4, NOTE_G4,2, //27
  REST,8, NOTE_C4,8, NOTE_D4,8, NOTE_DS4,8, NOTE_G4,8, NOTE_C5,8,
  NOTE_D5,-4, REST,16, NOTE_D5,-16, NOTE_D5,2,
  REST,4, NOTE_D5,8, NOTE_DS5,8, NOTE_F5,8, NOTE_G5,8, NOTE_F5,8, NOTE_DS5,8, NOTE_D5,8,  
  NOTE_D5,-4, NOTE_DS5,-16, NOTE_DS5,2,
  
  REST,4, NOTE_C5,8, NOTE_D5,8, NOTE_DS5,8, NOTE_F5,8, NOTE_DS5,8, NOTE_D5,8, NOTE_AS4,8,//32
  NOTE_AS4,-4, NOTE_C5,-4, NOTE_C5,-4,
  NOTE_F4,-4, REST,8, NOTE_G4,4, NOTE_D5,4, NOTE_DS5,4,
  NOTE_D5,-4, REST,16, NOTE_C5,16, NOTE_C5,2, 
  
  REST,4, NOTE_D5,4, NOTE_DS5,4, NOTE_F5,4, //36 
  NOTE_G5,-4, REST,16, NOTE_F5,2,
  NOTE_AS5,-4, NOTE_G5,-4, NOTE_DS5,4,
  
  NOTE_D5,-4, REST,16, NOTE_DS5,2, //39
  REST,4, NOTE_C5,8, NOTE_D5,8, NOTE_DS5,8, NOTE_E5,8, NOTE_F5,8, NOTE_FS5,8,
  NOTE_G5,-4, NOTE_F5,-4, REST,4,  NOTE_AS5,2,

  NOTE_G5,4, NOTE_F5,8,  NOTE_G5,8,  REST,8, NOTE_E5,8,//42
  REST,8, NOTE_D5,8, NOTE_C5,-2, 
  REST,8, NOTE_G4,8, NOTE_A4,8, NOTE_AS4,8, NOTE_C5,8, NOTE_D5,8, NOTE_DS5,8, 

  NOTE_DS5,-4,  NOTE_D5,-4,  NOTE_AS4,4, //45
  REST,4, NOTE_DS5,8, NOTE_E5,8,  NOTE_F5,4, NOTE_E5,8, NOTE_DS5,8, NOTE_D5,8, NOTE_AS5,8,
  NOTE_C5,4, NOTE_G4,8, NOTE_D5,4, NOTE_G4,8, NOTE_D5,4, 
  REST,8, NOTE_FS5,8, NOTE_G5,8, NOTE_FS5,8, NOTE_F5,8, NOTE_DS5,8, NOTE_D5,8, NOTE_DS5,8,

  REST, 8, NOTE_AS5,8, NOTE_G5,8, NOTE_DS5,8, NOTE_F5,8, REST,8, NOTE_G5,8, //49
  REST,8, NOTE_FS5,8,  NOTE_F5,8, NOTE_DS5,8, NOTE_F5,8, NOTE_DS5,8, NOTE_D5,8, NOTE_DS5,8,
  NOTE_D5,-4,  NOTE_C5,-4, REST,4, 
  REST,4, NOTE_C5,8, NOTE_D5,8, NOTE_DS5,8, NOTE_D5,8, NOTE_C5,8, NOTE_AS4,8,

  NOTE_D5,8,  NOTE_DS5,8,  NOTE_F5,8, NOTE_G5,8, NOTE_D5,8, NOTE_C5,8, NOTE_D5,8, NOTE_DS5,8,//53
  NOTE_F5,8,  NOTE_G5,8,  NOTE_AS5,8, NOTE_GS5,8, NOTE_G5,8, NOTE_F5,8, NOTE_DS5,8, NOTE_F5,8,
  NOTE_DS5,8,  NOTE_D5,16, NOTE_DS5,16, NOTE_D5,16, NOTE_AS4,8, NOTE_C5,8, NOTE_D5,8, NOTE_DS5,8, NOTE_F5,8,
  NOTE_G5,8, NOTE_AS5,8, NOTE_GS5,8, NOTE_G5,8, NOTE_F5,8, NOTE_DS5,8, NOTE_D5,8, NOTE_DS5,8,
  
  NOTE_C5,8,  NOTE_D5,8,  NOTE_DS5,8, NOTE_F5,8, NOTE_C5,8, NOTE_G4,8, NOTE_C5,8, NOTE_D5,8,//57
  NOTE_DS5,8,  NOTE_F5,8,  NOTE_AS5,8, NOTE_F5,8, NOTE_DS5,8, NOTE_D5,8, NOTE_AS4,8, NOTE_DS5,8,
  NOTE_D5,8,  NOTE_D5,16, NOTE_DS5,16, NOTE_D5,16, NOTE_G4,8, NOTE_C5,8, NOTE_D5,8, NOTE_DS5,8, NOTE_F5,8,
  NOTE_F5,8, NOTE_AS5,8, NOTE_F5,8, NOTE_DS5,8, NOTE_D5,8, NOTE_DS5,8, NOTE_D5,8, NOTE_AS4,8,
    
  NOTE_D5,8,  NOTE_DS5,8,  NOTE_F5,8, NOTE_G5,8, NOTE_AS4,8, NOTE_G4,8, NOTE_AS4,8, NOTE_DS5,8,//61
  NOTE_AS5,8,  NOTE_DS5,8,  NOTE_AS5,8, NOTE_GS5,8, NOTE_G5,8, NOTE_GS5,8, NOTE_G5,8, NOTE_F5,8,
  NOTE_DS5,8,  NOTE_D5,16, NOTE_DS5,16, NOTE_D5,16, NOTE_AS4,8, NOTE_C5,8, NOTE_D5,8, NOTE_DS5,8, NOTE_F5,8,
  
  NOTE_C6,8, NOTE_D5,8, NOTE_AS5,8, NOTE_D5,8, NOTE_C5,8, NOTE_D5,8, NOTE_B5,8, NOTE_G4,8, //64
  NOTE_C4,8, NOTE_DS4,8, NOTE_G4,8, NOTE_C5,8, NOTE_DS5,8, NOTE_G5,8, REST,8, NOTE_C5,8,
  NOTE_D5,8, NOTE_DS5,8, NOTE_D5,16, NOTE_DS5,16, NOTE_D5,16, NOTE_C5,8, NOTE_G4,8, NOTE_C5,8, NOTE_G5,8,
  NOTE_D5,-4, NOTE_C5,8, NOTE_C5,1,

  REST,4,  //68
  NOTE_DS4,8, NOTE_C4,-4, NOTE_DS4,2,
  NOTE_D6,2, NOTE_B3,2,
  NOTE_DS4,8, NOTE_C4,-4, NOTE_G3,2,
  NOTE_D6,2, NOTE_B3,2,
  NOTE_DS4,8, NOTE_C4,-4, NOTE_G4,2,
  NOTE_FS4,2, NOTE_D4,2,
  NOTE_F4,2, NOTE_D4,2,
  NOTE_D4,2, NOTE_G4,2,
  
  NOTE_G4,1, //77 these shold be tied together :(  
  NOTE_G4,1,
  NOTE_G4,1,
  NOTE_G4,1,
  REST,1,
  REST,1,
  NOTE_G4,1,
  NOTE_G4,1,
  NOTE_DS4,2, NOTE_G4,2, //repeat from here
  NOTE_G4,2, NOTE_C4,4, NOTE_D4,8, NOTE_DS4,8,

  NOTE_F4,2, NOTE_AS4,2, //87
  NOTE_AS4,2, NOTE_C4,4, NOTE_D4,8, NOTE_DS4,8,
  NOTE_DS4,2, NOTE_G4,-2,
  NOTE_F4,2, NOTE_G4,8, NOTE_F4,8, 
  NOTE_G4,-2, NOTE_D4,-1,
  NOTE_C4,2, NOTE_G4,-2,
  NOTE_F4,2,  NOTE_D4,8, NOTE_DS4,8,
  NOTE_F4,2, NOTE_AS3,2,
   
  NOTE_AS4,2, NOTE_C4,4, NOTE_D4,8, NOTE_DS4,8,
  NOTE_DS4,2, NOTE_AS4,-2,
  NOTE_GS4,2, NOTE_G4,8, NOTE_F4,8, NOTE_F4,8, 
  NOTE_G4,-1, 
  
  
  NOTE_DS4,2, NOTE_G4,2, //repeat from here
  NOTE_G4,2, NOTE_C4,4, NOTE_D4,8, NOTE_DS4,8,

  NOTE_F4,2, NOTE_AS4,2, //87
  NOTE_AS4,2, NOTE_C4,4, NOTE_D4,8, NOTE_DS4,8,
  NOTE_DS4,2, NOTE_G4,-2,
  NOTE_F4,2, NOTE_G4,8, NOTE_F4,8, 
  NOTE_G4,-2, NOTE_D4,-1,
  NOTE_C4,2, NOTE_G4,-2,
  NOTE_F4,2,  NOTE_D4,8, NOTE_DS4,8,
  NOTE_F4,2, NOTE_AS3,2,
   
  NOTE_AS4,2, NOTE_C4,4, NOTE_D4,8, NOTE_DS4,8,
  NOTE_DS4,2, NOTE_AS4,-2,
  NOTE_GS4,2, NOTE_G4,8, NOTE_F4,8, NOTE_F4,8, 
  NOTE_G4,-1
};

const PROGMEM int silentnight[] = {
  // Silent Night, Original Version
  // Score available at https://musescore.com/marcsabatella/scores/3123436
  NOTE_G4,-4, NOTE_A4,8, NOTE_G4,4,
  NOTE_E4,-2, 
  NOTE_G4,-4, NOTE_A4,8, NOTE_G4,4,
  NOTE_E4,-2, 
  NOTE_D5,2, NOTE_D5,4,
  NOTE_B4,-2,
  NOTE_C5,2, NOTE_C5,4,
  NOTE_G4,-2,

  NOTE_A4,2, NOTE_A4,4,
  NOTE_C5,-4, NOTE_B4,8, NOTE_A4,4,
  NOTE_G4,-4, NOTE_A4,8, NOTE_G4,4,
  NOTE_E4,-2, 
  NOTE_A4,2, NOTE_A4,4,
  NOTE_C5,-4, NOTE_B4,8, NOTE_A4,4,
  NOTE_G4,-4, NOTE_A4,8, NOTE_G4,4,
  NOTE_E4,-2, 
  
  NOTE_D5,2, NOTE_D5,4,
  NOTE_F5,-4, NOTE_D5,8, NOTE_B4,4,
  NOTE_C5,-2,
  NOTE_E5,-2,
  NOTE_C5,4, NOTE_G4,4, NOTE_E4,4,
  NOTE_G4,-4, NOTE_F4,8, NOTE_D4,4,
  NOTE_C4,-2,
  NOTE_C4,-1
};

const PROGMEM int songofstorms[] = {
  // Song of storms - The Legend of Zelda Ocarina of Time. 
  // Score available at https://musescore.com/user/4957541/scores/1545401
  NOTE_D4,4, NOTE_A4,4, NOTE_A4,4,
  REST,8, NOTE_E4,8, NOTE_B4,2,
  NOTE_F4,4, NOTE_C5,4, NOTE_C5,4,
  REST,8, NOTE_E4,8, NOTE_B4,2,
  NOTE_D4,4, NOTE_A4,4, NOTE_A4,4,
  REST,8, NOTE_E4,8, NOTE_B4,2,
  NOTE_F4,4, NOTE_C5,4, NOTE_C5,4,
  REST,8, NOTE_E4,8, NOTE_B4,2,
  NOTE_D4,8, NOTE_F4,8, NOTE_D5,2,
  
  NOTE_D4,8, NOTE_F4,8, NOTE_D5,2,
  NOTE_E5,-4, NOTE_F5,8, NOTE_E5,8, NOTE_E5,8,
  NOTE_E5,8, NOTE_C5,8, NOTE_A4,2,
  NOTE_A4,4, NOTE_D4,4, NOTE_F4,8, NOTE_G4,8,
  NOTE_A4,-2,
  NOTE_A4,4, NOTE_D4,4, NOTE_F4,8, NOTE_G4,8,
  NOTE_E4,-2,
  NOTE_D4,8, NOTE_F4,8, NOTE_D5,2,
  NOTE_D4,8, NOTE_F4,8, NOTE_D5,2,

  NOTE_E5,-4, NOTE_F5,8, NOTE_E5,8, NOTE_E5,8,
  NOTE_E5,8, NOTE_C5,8, NOTE_A4,2,
  NOTE_A4,4, NOTE_D4,4, NOTE_F4,8, NOTE_G4,8,
  NOTE_A4,2, NOTE_A4,4,
  NOTE_D4,1
};

const PROGMEM int startrek[] = {
  // Star Trek Intro
  // Score available at https://musescore.com/user/10768291/scores/4594271
  NOTE_D4, -8, NOTE_G4, 16, NOTE_C5, -4, 
  NOTE_B4, 8, NOTE_G4, -16, NOTE_E4, -16, NOTE_A4, -16,
  NOTE_D5, 2,
};

const PROGMEM int starwars[] = {
  // Star Wars
  NOTE_AS4,8, NOTE_AS4,8, NOTE_AS4,8,//1
  NOTE_F5,2, NOTE_C6,2,
  NOTE_AS5,8, NOTE_A5,8, NOTE_G5,8, NOTE_F6,2, NOTE_C6,4,  
  NOTE_AS5,8, NOTE_A5,8, NOTE_G5,8, NOTE_F6,2, NOTE_C6,4,  
  NOTE_AS5,8, NOTE_A5,8, NOTE_AS5,8, NOTE_G5,2, NOTE_C5,8, NOTE_C5,8, NOTE_C5,8,
  NOTE_F5,2, NOTE_C6,2,
  NOTE_AS5,8, NOTE_A5,8, NOTE_G5,8, NOTE_F6,2, NOTE_C6,4,  
  
  NOTE_AS5,8, NOTE_A5,8, NOTE_G5,8, NOTE_F6,2, NOTE_C6,4, //8  
  NOTE_AS5,8, NOTE_A5,8, NOTE_AS5,8, NOTE_G5,2, NOTE_C5,-8, NOTE_C5,16, 
  NOTE_D5,-4, NOTE_D5,8, NOTE_AS5,8, NOTE_A5,8, NOTE_G5,8, NOTE_F5,8,
  NOTE_F5,8, NOTE_G5,8, NOTE_A5,8, NOTE_G5,4, NOTE_D5,8, NOTE_E5,4,NOTE_C5,-8, NOTE_C5,16,
  NOTE_D5,-4, NOTE_D5,8, NOTE_AS5,8, NOTE_A5,8, NOTE_G5,8, NOTE_F5,8,
  
  NOTE_C6,-8, NOTE_G5,16, NOTE_G5,2, REST,8, NOTE_C5,8,//13
  NOTE_D5,-4, NOTE_D5,8, NOTE_AS5,8, NOTE_A5,8, NOTE_G5,8, NOTE_F5,8,
  NOTE_F5,8, NOTE_G5,8, NOTE_A5,8, NOTE_G5,4, NOTE_D5,8, NOTE_E5,4,NOTE_C6,-8, NOTE_C6,16,
  NOTE_F6,4, NOTE_DS6,8, NOTE_CS6,4, NOTE_C6,8, NOTE_AS5,4, NOTE_GS5,8, NOTE_G5,4, NOTE_F5,8,
  NOTE_C6,1
};

const PROGMEM int mario[] = {
  // Super Mario Bros theme
  // Score available at https://musescore.com/user/2123/scores/2145
  // Theme by Koji Kondo
  NOTE_E5,8, NOTE_E5,8, REST,8, NOTE_E5,8, REST,8, NOTE_C5,8, NOTE_E5,8, //1
  NOTE_G5,4, REST,4, NOTE_G4,8, REST,4, 
  NOTE_C5,-4, NOTE_G4,8, REST,4, NOTE_E4,-4, // 3
  NOTE_A4,4, NOTE_B4,4, NOTE_AS4,8, NOTE_A4,4,
  NOTE_G4,-8, NOTE_E5,-8, NOTE_G5,-8, NOTE_A5,4, NOTE_F5,8, NOTE_G5,8,
  REST,8, NOTE_E5,4,NOTE_C5,8, NOTE_D5,8, NOTE_B4,-4,
  NOTE_C5,-4, NOTE_G4,8, REST,4, NOTE_E4,-4, // repeats from 3
  NOTE_A4,4, NOTE_B4,4, NOTE_AS4,8, NOTE_A4,4,
  NOTE_G4,-8, NOTE_E5,-8, NOTE_G5,-8, NOTE_A5,4, NOTE_F5,8, NOTE_G5,8,
  REST,8, NOTE_E5,4,NOTE_C5,8, NOTE_D5,8, NOTE_B4,-4,

  REST,4, NOTE_G5,8, NOTE_FS5,8, NOTE_F5,8, NOTE_DS5,4, NOTE_E5,8,//7
  REST,8, NOTE_GS4,8, NOTE_A4,8, NOTE_C4,8, REST,8, NOTE_A4,8, NOTE_C5,8, NOTE_D5,8,
  REST,4, NOTE_DS5,4, REST,8, NOTE_D5,-4,
  NOTE_C5,2, REST,2,

  REST,4, NOTE_G5,8, NOTE_FS5,8, NOTE_F5,8, NOTE_DS5,4, NOTE_E5,8,//repeats from 7
  REST,8, NOTE_GS4,8, NOTE_A4,8, NOTE_C4,8, REST,8, NOTE_A4,8, NOTE_C5,8, NOTE_D5,8,
  REST,4, NOTE_DS5,4, REST,8, NOTE_D5,-4,
  NOTE_C5,2, REST,2,

  NOTE_C5,8, NOTE_C5,4, NOTE_C5,8, REST,8, NOTE_C5,8, NOTE_D5,4,//11
  NOTE_E5,8, NOTE_C5,4, NOTE_A4,8, NOTE_G4,2,

  NOTE_C5,8, NOTE_C5,4, NOTE_C5,8, REST,8, NOTE_C5,8, NOTE_D5,8, NOTE_E5,8,//13
  REST,1, 
  NOTE_C5,8, NOTE_C5,4, NOTE_C5,8, REST,8, NOTE_C5,8, NOTE_D5,4,
  NOTE_E5,8, NOTE_C5,4, NOTE_A4,8, NOTE_G4,2,
  NOTE_E5,8, NOTE_E5,8, REST,8, NOTE_E5,8, REST,8, NOTE_C5,8, NOTE_E5,4,
  NOTE_G5,4, REST,4, NOTE_G4,4, REST,4, 
  NOTE_C5,-4, NOTE_G4,8, REST,4, NOTE_E4,-4, // 19
  
  NOTE_A4,4, NOTE_B4,4, NOTE_AS4,8, NOTE_A4,4,
  NOTE_G4,-8, NOTE_E5,-8, NOTE_G5,-8, NOTE_A5,4, NOTE_F5,8, NOTE_G5,8,
  REST,8, NOTE_E5,4, NOTE_C5,8, NOTE_D5,8, NOTE_B4,-4,

  NOTE_C5,-4, NOTE_G4,8, REST,4, NOTE_E4,-4, // repeats from 19
  NOTE_A4,4, NOTE_B4,4, NOTE_AS4,8, NOTE_A4,4,
  NOTE_G4,-8, NOTE_E5,-8, NOTE_G5,-8, NOTE_A5,4, NOTE_F5,8, NOTE_G5,8,
  REST,8, NOTE_E5,4, NOTE_C5,8, NOTE_D5,8, NOTE_B4,-4,

  NOTE_E5,8, NOTE_C5,4, NOTE_G4,8, REST,4, NOTE_GS4,4,//23
  NOTE_A4,8, NOTE_F5,4, NOTE_F5,8, NOTE_A4,2,
  NOTE_D5,-8, NOTE_A5,-8, NOTE_A5,-8, NOTE_A5,-8, NOTE_G5,-8, NOTE_F5,-8,
  
  NOTE_E5,8, NOTE_C5,4, NOTE_A4,8, NOTE_G4,2, //26
  NOTE_E5,8, NOTE_C5,4, NOTE_G4,8, REST,4, NOTE_GS4,4,
  NOTE_A4,8, NOTE_F5,4, NOTE_F5,8, NOTE_A4,2,
  NOTE_B4,8, NOTE_F5,4, NOTE_F5,8, NOTE_F5,-8, NOTE_E5,-8, NOTE_D5,-8,
  NOTE_C5,8, NOTE_E4,4, NOTE_E4,8, NOTE_C4,2,

  NOTE_E5,8, NOTE_C5,4, NOTE_G4,8, REST,4, NOTE_GS4,4,//repeats from 23
  NOTE_A4,8, NOTE_F5,4, NOTE_F5,8, NOTE_A4,2,
  NOTE_D5,-8, NOTE_A5,-8, NOTE_A5,-8, NOTE_A5,-8, NOTE_G5,-8, NOTE_F5,-8,
  
  NOTE_E5,8, NOTE_C5,4, NOTE_A4,8, NOTE_G4,2, //26
  NOTE_E5,8, NOTE_C5,4, NOTE_G4,8, REST,4, NOTE_GS4,4,
  NOTE_A4,8, NOTE_F5,4, NOTE_F5,8, NOTE_A4,2,
  NOTE_B4,8, NOTE_F5,4, NOTE_F5,8, NOTE_F5,-8, NOTE_E5,-8, NOTE_D5,-8,
  NOTE_C5,8, NOTE_E4,4, NOTE_E4,8, NOTE_C4,2,
  NOTE_C5,8, NOTE_C5,4, NOTE_C5,8, REST,8, NOTE_C5,8, NOTE_D5,8, NOTE_E5,8,
  REST,1,

  NOTE_C5,8, NOTE_C5,4, NOTE_C5,8, REST,8, NOTE_C5,8, NOTE_D5,4, //33
  NOTE_E5,8, NOTE_C5,4, NOTE_A4,8, NOTE_G4,2,
  NOTE_E5,8, NOTE_E5,8, REST,8, NOTE_E5,8, REST,8, NOTE_C5,8, NOTE_E5,4,
  NOTE_G5,4, REST,4, NOTE_G4,4, REST,4, 
  NOTE_E5,8, NOTE_C5,4, NOTE_G4,8, REST,4, NOTE_GS4,4,
  NOTE_A4,8, NOTE_F5,4, NOTE_F5,8, NOTE_A4,2,
  NOTE_D5,-8, NOTE_A5,-8, NOTE_A5,-8, NOTE_A5,-8, NOTE_G5,-8, NOTE_F5,-8,
  
  NOTE_E5,8, NOTE_C5,4, NOTE_A4,8, NOTE_G4,2, //40
  NOTE_E5,8, NOTE_C5,4, NOTE_G4,8, REST,4, NOTE_GS4,4,
  NOTE_A4,8, NOTE_F5,4, NOTE_F5,8, NOTE_A4,2,
  NOTE_B4,8, NOTE_F5,4, NOTE_F5,8, NOTE_F5,-8, NOTE_E5,-8, NOTE_D5,-8,
  NOTE_C5,8, NOTE_E4,4, NOTE_E4,8, NOTE_C4,2,
  
  //game over sound
  NOTE_C5,-4, NOTE_G4,-4, NOTE_E4,4, //45
  NOTE_A4,-8, NOTE_B4,-8, NOTE_A4,-8, NOTE_GS4,-8, NOTE_AS4,-8, NOTE_GS4,-8,
  NOTE_G4,8, NOTE_D4,8, NOTE_E4,-2
};

const PROGMEM int takeonme[] = {
  // Take on me, by A-ha
  // Score available at https://musescore.com/user/27103612/scores/4834399
  // Arranged by Edward Truong
  NOTE_FS5,8, NOTE_FS5,8,NOTE_D5,8, NOTE_B4,8, REST,8, NOTE_B4,8, REST,8, NOTE_E5,8, 
  REST,8, NOTE_E5,8, REST,8, NOTE_E5,8, NOTE_GS5,8, NOTE_GS5,8, NOTE_A5,8, NOTE_B5,8,
  NOTE_A5,8, NOTE_A5,8, NOTE_A5,8, NOTE_E5,8, REST,8, NOTE_D5,8, REST,8, NOTE_FS5,8, 
  REST,8, NOTE_FS5,8, REST,8, NOTE_FS5,8, NOTE_E5,8, NOTE_E5,8, NOTE_FS5,8, NOTE_E5,8,
  NOTE_FS5,8, NOTE_FS5,8,NOTE_D5,8, NOTE_B4,8, REST,8, NOTE_B4,8, REST,8, NOTE_E5,8, 
  
  REST,8, NOTE_E5,8, REST,8, NOTE_E5,8, NOTE_GS5,8, NOTE_GS5,8, NOTE_A5,8, NOTE_B5,8,
  NOTE_A5,8, NOTE_A5,8, NOTE_A5,8, NOTE_E5,8, REST,8, NOTE_D5,8, REST,8, NOTE_FS5,8, 
  REST,8, NOTE_FS5,8, REST,8, NOTE_FS5,8, NOTE_E5,8, NOTE_E5,8, NOTE_FS5,8, NOTE_E5,8,
  NOTE_FS5,8, NOTE_FS5,8,NOTE_D5,8, NOTE_B4,8, REST,8, NOTE_B4,8, REST,8, NOTE_E5,8, 
  REST,8, NOTE_E5,8, REST,8, NOTE_E5,8, NOTE_GS5,8, NOTE_GS5,8, NOTE_A5,8, NOTE_B5,8,
  
  NOTE_A5,8, NOTE_A5,8, NOTE_A5,8, NOTE_E5,8, REST,8, NOTE_D5,8, REST,8, NOTE_FS5,8, 
  REST,8, NOTE_FS5,8, REST,8, NOTE_FS5,8, NOTE_E5,8, NOTE_E5,8, NOTE_FS5,8, NOTE_E5,8
};

const PROGMEM int tetris[] = {
  //Based on the arrangement at https://www.flutetunes.com/tunes.php?id=192
  NOTE_E5, 4,  NOTE_B4,8,  NOTE_C5,8,  NOTE_D5,4,  NOTE_C5,8,  NOTE_B4,8,
  NOTE_A4, 4,  NOTE_A4,8,  NOTE_C5,8,  NOTE_E5,4,  NOTE_D5,8,  NOTE_C5,8,
  NOTE_B4, -4,  NOTE_C5,8,  NOTE_D5,4,  NOTE_E5,4,
  NOTE_C5, 4,  NOTE_A4,4,  NOTE_A4,8,  NOTE_A4,4,  NOTE_B4,8,  NOTE_C5,8,

  NOTE_D5, -4,  NOTE_F5,8,  NOTE_A5,4,  NOTE_G5,8,  NOTE_F5,8,
  NOTE_E5, -4,  NOTE_C5,8,  NOTE_E5,4,  NOTE_D5,8,  NOTE_C5,8,
  NOTE_B4, 4,  NOTE_B4,8,  NOTE_C5,8,  NOTE_D5,4,  NOTE_E5,4,
  NOTE_C5, 4,  NOTE_A4,4,  NOTE_A4,4, REST, 4,

  NOTE_E5, 4,  NOTE_B4,8,  NOTE_C5,8,  NOTE_D5,4,  NOTE_C5,8,  NOTE_B4,8,
  NOTE_A4, 4,  NOTE_A4,8,  NOTE_C5,8,  NOTE_E5,4,  NOTE_D5,8,  NOTE_C5,8,
  NOTE_B4, -4,  NOTE_C5,8,  NOTE_D5,4,  NOTE_E5,4,
  NOTE_C5, 4,  NOTE_A4,4,  NOTE_A4,8,  NOTE_A4,4,  NOTE_B4,8,  NOTE_C5,8,

  NOTE_D5, -4,  NOTE_F5,8,  NOTE_A5,4,  NOTE_G5,8,  NOTE_F5,8,
  NOTE_E5, -4,  NOTE_C5,8,  NOTE_E5,4,  NOTE_D5,8,  NOTE_C5,8,
  NOTE_B4, 4,  NOTE_B4,8,  NOTE_C5,8,  NOTE_D5,4,  NOTE_E5,4,
  NOTE_C5, 4,  NOTE_A4,4,  NOTE_A4,4, REST, 4,
  
  NOTE_E5,2,  NOTE_C5,2,
  NOTE_D5,2,   NOTE_B4,2,
  NOTE_C5,2,   NOTE_A4,2,
  NOTE_GS4,2,  NOTE_B4,4,  REST,8, 
  NOTE_E5,2,   NOTE_C5,2,
  NOTE_D5,2,   NOTE_B4,2,
  NOTE_C5,4,   NOTE_E5,4,  NOTE_A5,2,
  NOTE_GS5,2
};

const PROGMEM int badinerie[] = {
  /*
   * C  D  E  F  G   A  B
   * DO RE MI FA SOL LA SI */
  // Badinerie
  NOTE_B5,-8, NOTE_D6,16, NOTE_B5,16,
  NOTE_FS5,-8, NOTE_B5,16, NOTE_FS5,16, NOTE_D5,-8, NOTE_FS5,16, NOTE_D5,16,
  NOTE_B4,4,NOTE_F4,16, NOTE_B4,16, NOTE_D5,16, NOTE_B4,16,
  NOTE_CS5,16, NOTE_B4,16, NOTE_CS5,16, NOTE_B4,16, NOTE_AS4,16, NOTE_CS5,16, NOTE_E5,16, NOTE_CS5,16,
  NOTE_D5,8, NOTE_B4,8, NOTE_B5,-8, NOTE_D6,16, NOTE_B5,16,
  NOTE_FS5,-8, NOTE_B5,16, NOTE_FS5,16, NOTE_D5,-8, NOTE_FS5,16, NOTE_D5,16,
  //6
  NOTE_B4,4, NOTE_D5,16, NOTE_CS5,-16, NOTE_D5,-8,
  NOTE_D5,16, NOTE_CS5,-16, NOTE_D5,-8, NOTE_B5,-8, NOTE_D5,-8,
  NOTE_D5,8, NOTE_CS5,-8, NOTE_FS5,-16, /*MI#*/ NOTE_F5,16, NOTE_FS5,-8,
  NOTE_FS5,-16, /* MI#??*/NOTE_F5,16, NOTE_FS5,-8, NOTE_D6,-8, NOTE_FS5,-8,
  NOTE_FS5,8, /*MI#*/ NOTE_F5,8, NOTE_CS5,16, NOTE_FS5,16, NOTE_A5,16, NOTE_FS5,16,
  NOTE_GS5,16, NOTE_FS5,16, NOTE_GS5,16, NOTE_FS5,16, NOTE_F5,16, NOTE_G5,16, NOTE_B5,16, NOTE_G5,16,
  //12
  NOTE_A5,16, NOTE_GS5,16, NOTE_A5,16, NOTE_G5,16, NOTE_F5,16, NOTE_A5,16, NOTE_FS5,16, NOTE_F5,16,
  NOTE_FS5,16, NOTE_B5,16,  NOTE_FS5,16, NOTE_F5,16, NOTE_FS5,16, NOTE_C6,16, NOTE_FS5,16, NOTE_E5,16,
  NOTE_FS5,16, NOTE_D6,16, NOTE_FS5,16, NOTE_F5,16, NOTE_FS5,16, NOTE_D6,16, NOTE_C6,16, NOTE_B5,16,
  NOTE_C6,16, NOTE_A5,16, NOTE_GS5,16, NOTE_FS5,16, NOTE_A5,8, NOTE_G5,8,
  NOTE_FS5,4, REST,4, NOTE_FS5,-8, NOTE_A5,16, NOTE_FS5,16,
  //18
  NOTE_CS5,-4, NOTE_FS5,16, NOTE_CS5,16, NOTE_A4,-8, NOTE_CS5,16, NOTE_A4,16,
  NOTE_F4,4,   NOTE_C5,8, NOTE_B4,8,
  NOTE_E5,8, NOTE_DS5,16, NOTE_FS5,16, NOTE_A5,8, NOTE_GS5,16, NOTE_FS5,16,
  NOTE_GS5,8, NOTE_D5,8, NOTE_GS5,-8, NOTE_B5,16, NOTE_GS5,8,
  NOTE_E5,-8, NOTE_GS5,16, NOTE_E5,16, NOTE_CS5,-8, NOTE_E5,16, NOTE_CS5,16,
  NOTE_A4,4, NOTE_A4,16, NOTE_D5,16, NOTE_FS5,16, NOTE_D5,16,
  //24
  NOTE_E5,16, NOTE_D5,16, NOTE_E5,16, NOTE_D5,16, NOTE_CS5,16, NOTE_E5,16, NOTE_G5,16, NOTE_E5,16,
  NOTE_FS5,16, NOTE_E5,16, NOTE_FS5,16, NOTE_E5,16, NOTE_D5,16, NOTE_FS5,16, NOTE_D5,16, NOTE_CS5,16,
  NOTE_D5,16, NOTE_G5,16, NOTE_D5,16, NOTE_CS5,16, NOTE_D5,16, NOTE_A5,16, NOTE_D5,16, NOTE_CS5,16,
  NOTE_D5,16, NOTE_B5,16, NOTE_D5,16, NOTE_CS5,16, NOTE_D5,16, NOTE_B5,16, NOTE_A5,16, NOTE_G5,16,
  NOTE_A5,16, NOTE_FS5,16, NOTE_E5,16, NOTE_D5,16, NOTE_FS5,8, NOTE_E5,16,
  //29
  NOTE_D5,4, NOTE_FS5,16, NOTE_E5,16, NOTE_FS5,-8,
  NOTE_FS5,16, NOTE_E5,16, NOTE_FS5,-8, NOTE_D6,-8, NOTE_FS5,-8,
  NOTE_FS5,8, NOTE_E5,8, NOTE_E5,16, NOTE_D5,16, NOTE_E5,-8,
  NOTE_E5,16, NOTE_D5,16, NOTE_E5,-8, NOTE_D6,-8, NOTE_E5,-8,
  NOTE_E5,8, NOTE_D5,8, NOTE_B5,-8, NOTE_D6,16, NOTE_B5,16,
  NOTE_B5,8, NOTE_G5,4, NOTE_G5,4, NOTE_B5,32, NOTE_A5,32, NOTE_G5,32, NOTE_FS5,32,
  //35
  NOTE_E5,4, NOTE_E5,8, NOTE_G5,32, NOTE_FS5,32, NOTE_E5,32, NOTE_D5,32,
  NOTE_C5,16, NOTE_E5,16, NOTE_G5,16, NOTE_E5,16, NOTE_CS5,16, NOTE_B4,16, NOTE_CS5,16, NOTE_A4,16,
  NOTE_AS4,-8, NOTE_A4,-8, NOTE_G4,8, NOTE_F4,8,
  NOTE_A4,8, NOTE_AS4,16, NOTE_CS5,16, NOTE_E5,8, NOTE_D5,16, NOTE_CS5,16,
  //39
  NOTE_D5,8, NOTE_B4,32, NOTE_CS5,32, NOTE_D5,32, NOTE_E5,32, NOTE_FS5,8, NOTE_D5,16, NOTE_FS5,16,
  NOTE_B5,8, NOTE_FS5,8, NOTE_E5,16, NOTE_D5,16, NOTE_CS5,16, NOTE_D5,16,
  NOTE_CS5,8, NOTE_B4,4
};

const PROGMEM int godfather[] = {
  // The Godfather theme
  // Score available at https://musescore.com/user/35463/scores/55160
  REST, 4, REST, 8, REST, 8, REST, 8, NOTE_E4, 8, NOTE_A4, 8, NOTE_C5, 8, //1
  NOTE_B4, 8, NOTE_A4, 8, NOTE_C5, 8, NOTE_A4, 8, NOTE_B4, 8, NOTE_A4, 8, NOTE_F4, 8, NOTE_G4, 8,
  NOTE_E4, 2, NOTE_E4, 8, NOTE_A4, 8, NOTE_C5, 8,
  NOTE_B4, 8, NOTE_A4, 8, NOTE_C5, 8, NOTE_A4, 8, NOTE_C5, 8, NOTE_A4, 8, NOTE_E4, 8, NOTE_DS4, 8,
  
  NOTE_D4, 2, NOTE_D4, 8, NOTE_F4, 8, NOTE_GS4, 8, //5
  NOTE_B4, 2, NOTE_D4, 8, NOTE_F4, 8, NOTE_GS4, 8,
  NOTE_A4, 2, NOTE_C4, 8, NOTE_C4, 8, NOTE_G4, 8, 
  NOTE_F4, 8, NOTE_E4, 8, NOTE_G4, 8, NOTE_F4, 8, NOTE_F4, 8, NOTE_E4, 8, NOTE_E4, 8, NOTE_GS4, 8,

  NOTE_A4, 2, REST,8, NOTE_A4, 8, NOTE_A4, 8, NOTE_GS4, 8, //9
  NOTE_G4, 2, NOTE_B4, 8, NOTE_A4, 8, NOTE_F4, 8, 
  NOTE_E4, 2, NOTE_E4, 8, NOTE_G4, 8, NOTE_E4, 8,
  NOTE_D4, 2, NOTE_D4, 8, NOTE_D4, 8, NOTE_F4, 8, NOTE_DS4, 8, 
   
  NOTE_E4, 2, REST, 8, NOTE_E4, 8, NOTE_A4, 8, NOTE_C5, 8, //13

  //repeats from 2
  NOTE_B4, 8, NOTE_A4, 8, NOTE_C5, 8, NOTE_A4, 8, NOTE_B4, 8, NOTE_A4, 8, NOTE_F4, 8, NOTE_G4, 8, //2
  NOTE_E4, 2, NOTE_E4, 8, NOTE_A4, 8, NOTE_C5, 8,
  NOTE_B4, 8, NOTE_A4, 8, NOTE_C5, 8, NOTE_A4, 8, NOTE_C5, 8, NOTE_A4, 8, NOTE_E4, 8, NOTE_DS4, 8,
  
  NOTE_D4, 2, NOTE_D4, 8, NOTE_F4, 8, NOTE_GS4, 8, //5
  NOTE_B4, 2, NOTE_D4, 8, NOTE_F4, 8, NOTE_GS4, 8,
  NOTE_A4, 2, NOTE_C4, 8, NOTE_C4, 8, NOTE_G4, 8, 
  NOTE_F4, 8, NOTE_E4, 8, NOTE_G4, 8, NOTE_F4, 8, NOTE_F4, 8, NOTE_E4, 8, NOTE_E4, 8, NOTE_GS4, 8,

  NOTE_A4, 2, REST,8, NOTE_A4, 8, NOTE_A4, 8, NOTE_GS4, 8, //9
  NOTE_G4, 2, NOTE_B4, 8, NOTE_A4, 8, NOTE_F4, 8, 
  NOTE_E4, 2, NOTE_E4, 8, NOTE_G4, 8, NOTE_E4, 8,
  NOTE_D4, 2, NOTE_D4, 8, NOTE_D4, 8, NOTE_F4, 8, NOTE_DS4, 8, 
   
  NOTE_E4, 2 //13
};

const PROGMEM int lick[] = {
  // The Lick 
  NOTE_D4,8, NOTE_E4,8, NOTE_F4,8, NOTE_G4,8, NOTE_E4,4, NOTE_C4,8, NOTE_D4,1,
};

const PROGMEM int zeldalullaby[] = {
  // Zelda's Lullaby - The Legend of Zelda Ocarina of Time. 
  // Score available at https://musescore.com/user/12754451/scores/2762776
  NOTE_E4,2, NOTE_G4,4,
  NOTE_D4,2, NOTE_C4,8, NOTE_D4,8, 
  NOTE_E4,2, NOTE_G4,4,
  NOTE_D4,-2,
  NOTE_E4,2, NOTE_G4,4,
  NOTE_D5,2, NOTE_C5,4,
  NOTE_G4,2, NOTE_F4,8, NOTE_E4,8, 
  NOTE_D4,-2,
  NOTE_E4,2, NOTE_G4,4,
  NOTE_D4,2, NOTE_C4,8, NOTE_D4,8, 
  NOTE_E4,2, NOTE_G4,4,
  NOTE_D4,-2,
  NOTE_E4,2, NOTE_G4,4,

  NOTE_D5,2, NOTE_C5,4,
  NOTE_G4,2, NOTE_F4,8, NOTE_E4,8, 
  NOTE_F4,8, NOTE_E4,8, NOTE_C4,2,
  NOTE_F4,2, NOTE_E4,8, NOTE_D4,8, 
  NOTE_E4,8, NOTE_D4,8, NOTE_A3,2,
  NOTE_G4,2, NOTE_F4,8, NOTE_E4,8, 
  NOTE_F4,8, NOTE_E4,8, NOTE_C4,4, NOTE_F4,4,
  NOTE_C5,-2
};

const PROGMEM int zeldatheme[] = {
  //Based on the arrangement at https://www.flutetunes.com/tunes.php?id=169
  NOTE_AS4,-2,  NOTE_F4,8,  NOTE_F4,8,  NOTE_AS4,8,//1
  NOTE_GS4,16,  NOTE_FS4,16,  NOTE_GS4,-2,
  NOTE_AS4,-2,  NOTE_FS4,8,  NOTE_FS4,8,  NOTE_AS4,8,
  NOTE_A4,16,  NOTE_G4,16,  NOTE_A4,-2,
  REST,1, 

  NOTE_AS4,4,  NOTE_F4,-4,  NOTE_AS4,8,  NOTE_AS4,16,  NOTE_C5,16, NOTE_D5,16, NOTE_DS5,16,//7
  NOTE_F5,2,  NOTE_F5,8,  NOTE_F5,8,  NOTE_F5,8,  NOTE_FS5,16, NOTE_GS5,16,
  NOTE_AS5,-2,  NOTE_AS5,8,  NOTE_AS5,8,  NOTE_GS5,8,  NOTE_FS5,16,
  NOTE_GS5,-8,  NOTE_FS5,16,  NOTE_F5,2,  NOTE_F5,4, 

  NOTE_DS5,-8, NOTE_F5,16, NOTE_FS5,2, NOTE_F5,8, NOTE_DS5,8, //11
  NOTE_CS5,-8, NOTE_DS5,16, NOTE_F5,2, NOTE_DS5,8, NOTE_CS5,8,
  NOTE_C5,-8, NOTE_D5,16, NOTE_E5,2, NOTE_G5,8, 
  NOTE_F5,16, NOTE_F4,16, NOTE_F4,16, NOTE_F4,16,NOTE_F4,16,NOTE_F4,16,NOTE_F4,16,NOTE_F4,16,NOTE_F4,8, NOTE_F4,16,NOTE_F4,8,

  NOTE_AS4,4,  NOTE_F4,-4,  NOTE_AS4,8,  NOTE_AS4,16,  NOTE_C5,16, NOTE_D5,16, NOTE_DS5,16,//15
  NOTE_F5,2,  NOTE_F5,8,  NOTE_F5,8,  NOTE_F5,8,  NOTE_FS5,16, NOTE_GS5,16,
  NOTE_AS5,-2, NOTE_CS6,4,
  NOTE_C6,4, NOTE_A5,2, NOTE_F5,4,
  NOTE_FS5,-2, NOTE_AS5,4,
  NOTE_A5,4, NOTE_F5,2, NOTE_F5,4,

  NOTE_FS5,-2, NOTE_AS5,4,
  NOTE_A5,4, NOTE_F5,2, NOTE_D5,4,
  NOTE_DS5,-2, NOTE_FS5,4,
  NOTE_F5,4, NOTE_CS5,2, NOTE_AS4,4,
  NOTE_C5,-8, NOTE_D5,16, NOTE_E5,2, NOTE_G5,8, 
  NOTE_F5,16, NOTE_F4,16, NOTE_F4,16, NOTE_F4,16,NOTE_F4,16,NOTE_F4,16,NOTE_F4,16,NOTE_F4,16,NOTE_F4,8, NOTE_F4,16,NOTE_F4,8
};

const int num_songs = 34;
int *songs[num_songs] = {
  asabranca, babyelephant, brahms, cannond, cantina, 
  got, sonic, greensleeves, happybirthday, harrypotter, darthvader,
  jigglypuff, cat, christmas, mii, minuet, rickroll, nokia, odetojoy, pacman,
  pinkpanther, layton, silentnight, songofstorms, startrek, starwars,
  mario, takeonme, tetris, badinerie, godfather, lick, 
  zeldalullaby, zeldatheme
};

const PROGMEM char song1[] = "Asabranca";
const PROGMEM char song2[] = "Baby Elephant";
const PROGMEM char song4[] = "Brahms Lullaby";
const PROGMEM char song5[] = "Cannon in D";
const PROGMEM char song6[] = "Cantina";
const PROGMEM char song9[] = "GOT";
const PROGMEM char song10[] = "Sonic";
const PROGMEM char song11[] = "Greensleeves";
const PROGMEM char song12[] = "Happy Birthday";
const PROGMEM char song13[] = "Harry Potter";
const PROGMEM char song14[] = "Imperial March";
const PROGMEM char song15[] = "Jigglypuff";
const PROGMEM char song16[] = "Keyboard Cat";
const PROGMEM char song17[] = "Merry Christmas";
const PROGMEM char song18[] = "Mii Channel";
const PROGMEM char song19[] = "Minuet in G";
const PROGMEM char song20[] = "Rickroll";
const PROGMEM char song21[] = "Nokia";
const PROGMEM char song22[] = "Ode to Joy";
const PROGMEM char song23[] = "Pacman";
const PROGMEM char song24[] = "Pink Panther";
const PROGMEM char song26[] = "Prof. Layton";
const PROGMEM char song28[] = "Silent Night";
const PROGMEM char song29[] = "Song of Storms";
const PROGMEM char song30[] = "Star Trek";
const PROGMEM char song31[] = "Star Wars";
const PROGMEM char song32[] = "Super Mario";
const PROGMEM char song33[] = "Take on Me";
const PROGMEM char song34[] = "Tetris";
const PROGMEM char song35[] = "The Badinerie";
const PROGMEM char song36[] = "The Godfather";
const PROGMEM char song37[] = "The Lick";
const PROGMEM char song40[] = "Zelda Lullaby";
const PROGMEM char song41[] = "Zelda Theme";

const PROGMEM char* const names[num_songs] = {
  song1, song2, song4, song5, song6, song9, song10,
  song11, song12, song13, song14, song15, song16, song17, song18, song19, song20,
  song21, song22, song23, song24, song26, song28, song29, song30,
  song31, song32, song33, song34, song35, song36, song37, song40,
  song41
};

int tempos[num_songs] = {
  120, 132, 76, 100, 280, 85, 140, 70, 140, 144, 120, 85, 160,
  140, 114, 140, 114, 180, 114, 105, 120, 280, 140, 108, 80, 108, 
  200, 140, 144, 120, 80, 108, 108, 88
};

int song_sizes[num_songs] = {
  sizeof(asabranca), sizeof(babyelephant), sizeof(brahms), sizeof(cannond),
  sizeof(cantina), sizeof(got), sizeof(sonic), sizeof(greensleeves),
  sizeof(happybirthday), sizeof(harrypotter), sizeof(darthvader),
  sizeof(jigglypuff), sizeof(cat), sizeof(christmas), sizeof(mii), sizeof(minuet),
  sizeof(rickroll), sizeof(nokia), sizeof(odetojoy), sizeof(pacman),
  sizeof(pinkpanther), sizeof(layton), sizeof(silentnight), sizeof(songofstorms),
  sizeof(startrek), sizeof(starwars), sizeof(mario), sizeof(takeonme),
  sizeof(tetris), sizeof(badinerie), sizeof(godfather),
  sizeof(lick), sizeof(zeldalullaby), sizeof(zeldatheme)
};
